{"accessors": [{"count": 2580, "min": [0], "max": [896], "bufferView": 0, "componentType": 5123, "byteOffset": 0, "type": "SCALAR"}, {"count": 897, "min": [-3.510082721710205, -0.5079843401908875, -3.200259208679199], "max": [3.4578685760498047, 0.4762584865093231, 3.712406635284424], "bufferView": 1, "componentType": 5126, "byteOffset": 0, "type": "VEC3"}, {"componentType": 5126, "count": 897, "bufferView": 2, "type": "VEC3", "byteOffset": 0}, {"componentType": 5126, "count": 897, "bufferView": 3, "type": "VEC2", "byteOffset": 0}], "scenes": [{"nodes": [0, 2, 4, 6, 8, 10], "name": "defaultScene"}], "scene": 0, "materials": [{"alphaMode": "OPAQUE", "pbrMetallicRoughness": {"roughnessFactor": 1, "metallicFactor": 0, "baseColorFactor": [1.0, 0.038466691970825195, 0.0, 1.0]}}], "meshes": [{"primitives": [{"indices": 0, "attributes": {"POSITION": 1, "TEXCOORD_0": 3, "NORMAL": 2}, "material": 0, "mode": 4}]}], "nodes": [{"translation": [0.0, 0.0, 1.3136251360460476], "scale": [0.616748544337745, 2.1112718649960223, 0.47630599352222], "rotation": [-0.7120862456604072, 0.0, 0.0, 0.702092001621772], "children": [1]}, {"translation": [0.0, 0.0, 0.0], "scale": [1.0, 1.0, 1.0], "rotation": [0.0, 0.0, 0.0, 1.0]}, {"translation": [-1.3721244142528717, 0.0, 0.5578996228263697], "scale": [0.616748544337745, 2.1112718649960223, 0.47630599352222], "rotation": [-0.6008610645717796, -0.3821423849043729, -0.37677895557889995, 0.5924278836906138], "children": [3]}, {"translation": [0.0, 0.0, 0.0], "scale": [1.0, 1.0, 1.0], "rotation": [0.0, 0.0, 0.0, 1.0]}, {"translation": [1.0818361106479066, -0.031725695675595966, 0.3315907409460316], "scale": [0.616748544337745, 2.1112718649960223, 0.47630599352222], "rotation": [-0.5810093919047455, 0.4116975926298507, 0.40591935124976913, 0.5728548324158834], "children": [5]}, {"translation": [0.0, 0.0, 0.0], "scale": [1.0, 1.0, 1.0], "rotation": [0.0, 0.0, 0.0, 1.0]}, {"translation": [0.6315943397901058, 0.0, -0.933192525677494], "scale": [0.616748544337745, 2.1112718649960223, 0.47630599352222], "rotation": [-0.21851275207922413, 0.6777307713520947, 0.6682187118752017, 0.21544589075010118], "children": [7]}, {"translation": [0.0, 0.0, 0.0], "scale": [1.0, 1.0, 1.0], "rotation": [0.0, 0.0, 0.0, 1.0]}, {"translation": [-0.9394260488567644, 0.0, -1.0677842596656728], "scale": [0.5266418198687504, 2.1112718649960223, 0.47630599352222], "rotation": [-0.27789245136718127, -0.6556238302043944, -0.6464220451726591, 0.2739921864872333], "children": [9]}, {"translation": [0.0, 0.0, 0.0], "scale": [1.0, 1.0, 1.0], "rotation": [0.0, 0.0, 0.0, 1.0]}, {"translation": [0.0, 0.0, 0.0], "scale": [1.0, 1.0, 1.0], "rotation": [0.0, 0.0, 0.0, 1.0], "mesh": 0}], "bufferViews": [{"buffer": 0, "byteLength": 5160, "byteOffset": 0, "target": 34963}, {"buffer": 0, "byteLength": 10764, "byteOffset": 5160, "target": 34962}, {"buffer": 0, "byteLength": 10764, "byteOffset": 15924, "target": 34962}, {"buffer": 0, "byteLength": 7176, "byteOffset": 26688, "target": 34962}], "buffers": [{"byteLength": 33864, "uri": "data:application/octet-stream;base64,"}], "asset": {"version": "2.0", "generator": "maya-glTFExport"}}