{"accessors": [{"count": 4530, "min": [0], "max": [2128], "bufferView": 0, "componentType": 5123, "byteOffset": 0, "type": "SCALAR"}, {"count": 2129, "min": [-1.5671024322509766, -0.24217498302459717, -3.7594199180603027], "max": [1.5828137397766113, 0.24217489361763, 2.7648508548736572], "bufferView": 1, "componentType": 5126, "byteOffset": 0, "type": "VEC3"}, {"componentType": 5126, "count": 2129, "bufferView": 2, "type": "VEC3", "byteOffset": 0}, {"componentType": 5126, "count": 2129, "bufferView": 3, "type": "VEC2", "byteOffset": 0}], "scenes": [{"nodes": [0, 2, 4, 6, 8, 10, 12, 14, 16, 18, 20, 22, 24, 26, 28, 30], "name": "defaultScene"}], "scene": 0, "materials": [{"alphaMode": "OPAQUE", "pbrMetallicRoughness": {"roughnessFactor": 1, "metallicFactor": 0, "baseColorFactor": [0.19900000095367432, 0.19900000095367432, 0.19900000095367432, 1.0]}}], "meshes": [{"primitives": [{"indices": 0, "attributes": {"POSITION": 1, "TEXCOORD_0": 3, "NORMAL": 2}, "material": 0, "mode": 4}]}], "nodes": [{"translation": [0.0, 2.5724309322751138, 0.9641174995816109], "scale": [1.0, 1.0, 1.0], "rotation": [0.0, 0.0, 0.0, 1.0], "children": [1]}, {"translation": [0.0, 0.0, 0.0], "scale": [1.0, 1.0, 1.0], "rotation": [0.0, 0.0, 0.0, 1.0]}, {"translation": [0.0, 2.511337569369601, 0.08147399810727163], "scale": [3.3104069679022228, 1.4934914562717727, 1.8257870463907147], "rotation": [0.0, 0.0, 0.0, 1.0], "children": [3]}, {"translation": [0.0, 0.0, 0.0], "scale": [1.0, 1.0, 1.0], "rotation": [0.0, 0.0, 0.0, 1.0]}, {"translation": [0.0, 0.0, 0.0], "scale": [1.0, 0.41825011354297054, 1.0], "rotation": [0.0, 0.0, 0.0, 1.0], "children": [5]}, {"translation": [0.0, 0.0, 0.0], "scale": [1.0, 1.0, 1.0], "rotation": [0.0, 0.0, 0.0, 1.0]}, {"translation": [0.0, -0.24218082678644315, -0.1471090811938076], "scale": [0.7901724177964236, 0.7088416967875077, 0.9325060406235727], "rotation": [0.0, 0.0, 0.0, 1.0], "children": [7]}, {"translation": [0.0, 0.0, 0.0], "scale": [1.0, 1.0, 1.0], "rotation": [0.0, 0.0, 0.0, 1.0]}, {"translation": [0.0, 0.23163639487800358, -0.1471090811938076], "scale": [0.7901724177964236, 0.7088416967875077, 0.9325060406235727], "rotation": [0.0, 0.0, 0.0, 1.0], "children": [9]}, {"translation": [0.0, 0.0, 0.0], "scale": [1.0, 1.0, 1.0], "rotation": [0.0, 0.0, 0.0, 1.0]}, {"translation": [0.0, 0.0, 0.0], "scale": [1.0, 1.0, 1.0], "rotation": [0.0, 0.0, 0.0, 1.0], "children": [11]}, {"translation": [0.0, 0.0, 0.0], "scale": [1.0, 1.0, 1.0], "rotation": [0.0, 0.0, 0.0, 1.0]}, {"translation": [0.0, -2.572267920282755, 0.0], "scale": [1.0, 1.0, 1.0], "rotation": [0.0, 0.0, 0.0, 1.0], "children": [13]}, {"translation": [0.0, 0.0, 0.0], "scale": [1.0, 1.0, 1.0], "rotation": [0.0, 0.0, 0.0, 1.0]}, {"translation": [0.0, 0.0, 0.8358464154946101], "scale": [0.3627057050900787, 0.3755568699809143, 3.8271086025085426], "rotation": [0.0, 0.0, 0.0, 1.0], "children": [15]}, {"translation": [0.0, 0.0, 0.0], "scale": [1.0, 1.0, 1.0], "rotation": [0.0, 0.0, 0.0, 1.0]}, {"translation": [0.0, 0.0, -0.3889012529039924], "scale": [0.3627057050900787, 0.3755568699809143, 1.8719437828972927], "rotation": [0.0, 0.7118551216522395, 0.0, 0.7023263385189789], "children": [17]}, {"translation": [0.0, 0.0, 0.0], "scale": [1.0, 1.0, 1.0], "rotation": [0.0, 0.0, 0.0, 1.0]}, {"translation": [1.2353705462706293, 0.0, 0.8538233273835097], "scale": [0.34744323575947106, 0.41696589938194223, 0.24219632676642303], "rotation": [-0.7023837444520251, 0.0, 0.0, 0.7117984795779998], "children": [19]}, {"translation": [0.0, 0.0, 0.0], "scale": [1.0, 1.0, 1.0], "rotation": [0.0, 0.0, 0.0, 1.0]}, {"translation": [-1.2196591150705594, 0.0, 0.8538233273835097], "scale": [0.34744323575947106, 0.41696589938194223, 0.24219632676642303], "rotation": [-0.7023837444520251, 0.0, 0.0, 0.7117984795779998], "children": [21]}, {"translation": [0.0, 0.0, 0.0], "scale": [1.0, 1.0, 1.0], "rotation": [0.0, 0.0, 0.0, 1.0]}, {"translation": [0.0, 0.0, -1.2012812402160908], "scale": [0.2897887021471958, 0.2897887021471958, 0.2897887021471958], "rotation": [0.0, 0.0, 0.0, 1.0], "children": [23]}, {"translation": [0.0, 0.0, 0.0], "scale": [1.0, 1.0, 1.0], "rotation": [0.0, 0.0, 0.0, 1.0]}, {"translation": [0.0, 0.0, 0.0], "scale": [1.0, 1.0, 1.0], "rotation": [0.0, 0.0, 0.0, 1.0], "children": [25]}, {"translation": [0.0, 0.0, 0.0], "scale": [1.0, 1.0, 1.0], "rotation": [0.0, 0.0, 0.0, 1.0]}, {"translation": [0.0, 0.0, -1.443381768403759], "scale": [0.22411476451672604, 0.23895278144293533, 0.19985091514199535], "rotation": [-0.5155605654244375, 0.5092529790853044, 0.48425899481279977, 0.49025700669635863], "children": [27]}, {"translation": [0.0, 0.0, 0.0], "scale": [1.0, 1.0, 1.0], "rotation": [0.0, 0.0, 0.0, 1.0]}, {"translation": [0.0, 0.0, -2.0880293499627234], "scale": [0.1130121558563006, 0.1745690452140091, 1.0], "rotation": [0.0, 0.0, 0.0, 1.0], "children": [29]}, {"translation": [0.0, 0.0, 0.0], "scale": [1.0, 1.0, 1.0], "rotation": [0.0, 0.0, 0.0, 1.0]}, {"translation": [0.0, 0.0, 0.0], "scale": [1.0, 1.0, 1.0], "rotation": [0.0, 0.0, 0.0, 1.0], "mesh": 0}], "bufferViews": [{"buffer": 0, "byteLength": 9060, "byteOffset": 0, "target": 34963}, {"buffer": 0, "byteLength": 25548, "byteOffset": 9060, "target": 34962}, {"buffer": 0, "byteLength": 25548, "byteOffset": 34608, "target": 34962}, {"buffer": 0, "byteLength": 17032, "byteOffset": 60156, "target": 34962}], "buffers": [{"byteLength": 77188, "uri": "data:application/octet-stream;base64,"}], "asset": {"version": "2.0", "generator": "maya-glTFExport"}}