{"accessors": [{"count": 132, "min": [0], "max": [118], "bufferView": 0, "componentType": 5123, "byteOffset": 0, "type": "SCALAR"}, {"count": 119, "min": [-0.5000000596046448, -0.5, -0.4999999403953552], "max": [0.5000000596046448, 0.49999991059303284, 0.4999999403953552], "bufferView": 1, "componentType": 5126, "byteOffset": 0, "type": "VEC3"}, {"componentType": 5126, "count": 119, "bufferView": 2, "type": "VEC3", "byteOffset": 0}, {"componentType": 5126, "count": 119, "bufferView": 3, "type": "VEC2", "byteOffset": 0}, {"count": 594, "min": [0], "max": [156], "bufferView": 4, "componentType": 5123, "byteOffset": 0, "type": "SCALAR"}, {"count": 157, "min": [-1.4033112525939941, -0.5000002384185791, -1.4033116102218628], "max": [1.4033117294311523, 0.5000000596046448, 1.403311014175415], "bufferView": 5, "componentType": 5126, "byteOffset": 0, "type": "VEC3"}, {"componentType": 5126, "count": 157, "bufferView": 6, "type": "VEC3", "byteOffset": 0}, {"componentType": 5126, "count": 157, "bufferView": 7, "type": "VEC2", "byteOffset": 0}, {"count": 324, "min": [0], "max": [241], "bufferView": 8, "componentType": 5123, "byteOffset": 0, "type": "SCALAR"}, {"count": 242, "min": [-0.5, -0.5, -0.8038316369056702], "max": [0.5, 2.680637836456299, 0.7972083687782288], "bufferView": 9, "componentType": 5126, "byteOffset": 0, "type": "VEC3"}, {"componentType": 5126, "count": 242, "bufferView": 10, "type": "VEC3", "byteOffset": 0}, {"componentType": 5126, "count": 242, "bufferView": 11, "type": "VEC2", "byteOffset": 0}, {"count": 132, "min": [0], "max": [118], "bufferView": 12, "componentType": 5123, "byteOffset": 0, "type": "SCALAR"}, {"count": 119, "min": [-0.5, -0.5, -0.5], "max": [0.5, 0.5, 0.5], "bufferView": 13, "componentType": 5126, "byteOffset": 0, "type": "VEC3"}, {"componentType": 5126, "count": 119, "bufferView": 14, "type": "VEC3", "byteOffset": 0}, {"componentType": 5126, "count": 119, "bufferView": 15, "type": "VEC2", "byteOffset": 0}, {"count": 480, "min": [0], "max": [130], "bufferView": 16, "componentType": 5123, "byteOffset": 0, "type": "SCALAR"}, {"count": 131, "min": [-1.000000238418579, -1.0, -1.0000004768371582], "max": [1.0, 1.0, 1.0000001192092896], "bufferView": 17, "componentType": 5126, "byteOffset": 0, "type": "VEC3"}, {"componentType": 5126, "count": 131, "bufferView": 18, "type": "VEC3", "byteOffset": 0}, {"componentType": 5126, "count": 131, "bufferView": 19, "type": "VEC2", "byteOffset": 0}, {"count": 336, "min": [0], "max": [85], "bufferView": 20, "componentType": 5123, "byteOffset": 0, "type": "SCALAR"}, {"count": 86, "min": [-0.5, -0.5000004768371582, -0.49999988079071045], "max": [0.5, 12.040754318237305, 0.8000009059906006], "bufferView": 21, "componentType": 5126, "byteOffset": 0, "type": "VEC3"}, {"componentType": 5126, "count": 86, "bufferView": 22, "type": "VEC3", "byteOffset": 0}, {"componentType": 5126, "count": 86, "bufferView": 23, "type": "VEC2", "byteOffset": 0}], "scenes": [{"nodes": [0, 1, 2, 3, 4, 5], "name": "defaultScene"}], "scene": 0, "materials": [{"alphaMode": "OPAQUE", "pbrMetallicRoughness": {"roughnessFactor": 1, "metallicFactor": 0, "baseColorFactor": [0.19900000095367432, 0.19900000095367432, 0.19900000095367432, 1.0]}}, {"alphaMode": "OPAQUE", "pbrMetallicRoughness": {"roughnessFactor": 1, "metallicFactor": 0, "baseColorFactor": [0.39156627655029297, 0.27180787920951843, 0.06603687256574631, 1.0]}}], "meshes": [{"primitives": [{"indices": 0, "attributes": {"POSITION": 1, "TEXCOORD_0": 3, "NORMAL": 2}, "material": 0, "mode": 4}]}, {"primitives": [{"indices": 4, "attributes": {"POSITION": 5, "TEXCOORD_0": 7, "NORMAL": 6}, "material": 0, "mode": 4}]}, {"primitives": [{"indices": 8, "attributes": {"POSITION": 9, "TEXCOORD_0": 11, "NORMAL": 10}, "material": 0, "mode": 4}]}, {"primitives": [{"indices": 12, "attributes": {"POSITION": 13, "TEXCOORD_0": 15, "NORMAL": 14}, "material": 0, "mode": 4}]}, {"primitives": [{"indices": 16, "attributes": {"POSITION": 17, "TEXCOORD_0": 19, "NORMAL": 18}, "material": 1, "mode": 4}]}, {"primitives": [{"indices": 20, "attributes": {"POSITION": 21, "TEXCOORD_0": 23, "NORMAL": 22}, "material": 1, "mode": 4}]}], "nodes": [{"translation": [0.0, 1.3071069366003407, 0.0], "scale": [0.6092022379208943, 4.554051198838135, 0.6957883355051644], "rotation": [0.0, 0.0, 0.0, 1.0], "mesh": 0}, {"translation": [0.009043987012562427, 3.9102992424814733, 0.0], "scale": [0.5114997663017461, 0.5114997663017461, 0.5114997663017461], "rotation": [0.0, 0.0, -0.7126398937300403, 0.7015300291964962], "mesh": 1}, {"translation": [0.0, -0.28692359718192384, 0.0], "scale": [0.5618720911728897, 0.537081411670805, 2.8058370996739], "rotation": [0.0, 0.0, 0.0, 1.0], "mesh": 2}, {"translation": [0.0, 2.5731800609899604, 0.0], "scale": [0.4527312219028474, 0.42112096257326326, 2.181039280337671], "rotation": [0.0, 0.0, 0.0, 1.0], "mesh": 3}, {"translation": [0.0, 4.38106948746405, 0.0], "scale": [0.37019376109830254, 0.31662409526547497, 0.3985307377387578], "rotation": [-0.7009613185890191, 0.0, 0.0, 0.7131992918125646], "mesh": 4}, {"translation": [0.0, 4.741648614889215, -0.039159625449658564], "scale": [0.2845626551639169, 0.3707466927602122, 0.2881837678561785], "rotation": [-0.09271427405826035, 0.0, 0.0, 0.9956927555153998], "mesh": 5}], "bufferViews": [{"buffer": 0, "byteLength": 264, "byteOffset": 0, "target": 34963}, {"buffer": 0, "byteLength": 1428, "byteOffset": 264, "target": 34962}, {"buffer": 0, "byteLength": 1428, "byteOffset": 1692, "target": 34962}, {"buffer": 0, "byteLength": 952, "byteOffset": 3120, "target": 34962}, {"buffer": 0, "byteLength": 1188, "byteOffset": 4072, "target": 34963}, {"buffer": 0, "byteLength": 1884, "byteOffset": 5260, "target": 34962}, {"buffer": 0, "byteLength": 1884, "byteOffset": 7144, "target": 34962}, {"buffer": 0, "byteLength": 1256, "byteOffset": 9028, "target": 34962}, {"buffer": 0, "byteLength": 648, "byteOffset": 10284, "target": 34963}, {"buffer": 0, "byteLength": 2904, "byteOffset": 10932, "target": 34962}, {"buffer": 0, "byteLength": 2904, "byteOffset": 13836, "target": 34962}, {"buffer": 0, "byteLength": 1936, "byteOffset": 16740, "target": 34962}, {"buffer": 0, "byteLength": 264, "byteOffset": 18676, "target": 34963}, {"buffer": 0, "byteLength": 1428, "byteOffset": 18940, "target": 34962}, {"buffer": 0, "byteLength": 1428, "byteOffset": 20368, "target": 34962}, {"buffer": 0, "byteLength": 952, "byteOffset": 21796, "target": 34962}, {"buffer": 0, "byteLength": 960, "byteOffset": 22748, "target": 34963}, {"buffer": 0, "byteLength": 1572, "byteOffset": 23708, "target": 34962}, {"buffer": 0, "byteLength": 1572, "byteOffset": 25280, "target": 34962}, {"buffer": 0, "byteLength": 1048, "byteOffset": 26852, "target": 34962}, {"buffer": 0, "byteLength": 672, "byteOffset": 27900, "target": 34963}, {"buffer": 0, "byteLength": 1032, "byteOffset": 28572, "target": 34962}, {"buffer": 0, "byteLength": 1032, "byteOffset": 29604, "target": 34962}, {"buffer": 0, "byteLength": 688, "byteOffset": 30636, "target": 34962}], "buffers": [{"byteLength": 31324, "uri": "data:application/octet-stream;base64,"}], "asset": {"version": "2.0", "generator": "maya-glTFExport"}}