{"accessors": [{"count": 4650, "min": [0], "max": [1865], "bufferView": 0, "componentType": 5123, "byteOffset": 0, "type": "SCALAR"}, {"count": 1866, "min": [-1.000000238418579, -0.9997973442077637, -2.771815299987793], "max": [1.348621129989624, 0.9997977018356323, 2.29170298576355], "bufferView": 1, "componentType": 5126, "byteOffset": 0, "type": "VEC3"}, {"componentType": 5126, "count": 1866, "bufferView": 2, "type": "VEC3", "byteOffset": 0}, {"componentType": 5126, "count": 1866, "bufferView": 3, "type": "VEC2", "byteOffset": 0}], "scenes": [{"nodes": [0, 2, 4, 6, 8, 10, 12, 14, 16, 18, 20, 22], "name": "defaultScene"}], "scene": 0, "materials": [{"alphaMode": "OPAQUE", "pbrMetallicRoughness": {"roughnessFactor": 1, "metallicFactor": 0, "baseColorFactor": [1.0, 0.34880000352859497, 0.17640000581741333, 1.0]}}], "meshes": [{"primitives": [{"indices": 0, "attributes": {"POSITION": 1, "TEXCOORD_0": 3, "NORMAL": 2}, "material": 0, "mode": 4}]}], "nodes": [{"translation": [0.0, 0.0, 0.0], "scale": [1.0, 1.0, 1.0], "rotation": [0.6999512775596846, 0.0, 0.0, 0.7141905971395629], "children": [1]}, {"translation": [0.0, 0.0, 0.0], "scale": [1.0, 1.0, 1.0], "rotation": [0.0, 0.0, 0.0, 1.0]}, {"translation": [0.0, 0.0, -0.8504573326290896], "scale": [0.7646193688191263, 0.7646193688191263, 0.7646193688191263], "rotation": [0.6999512775596846, 0.0, 0.0, 0.7141905971395629], "children": [3]}, {"translation": [0.0, 0.0, 0.0], "scale": [1.0, 1.0, 1.0], "rotation": [0.0, 0.0, 0.0, 1.0]}, {"translation": [0.0, 0.0, -1.6350616546445682], "scale": [0.5142719160462474, 0.5142719160462474, 0.5142719160462474], "rotation": [0.6999512775596846, 0.0, 0.0, 0.7141905971395629], "children": [5]}, {"translation": [0.0, 0.0, 0.0], "scale": [1.0, 1.0, 1.0], "rotation": [0.0, 0.0, 0.0, 1.0]}, {"translation": [0.0, 0.0, -2.218655443178526], "scale": [0.31747961686316195, 0.31747961686316195, 0.31747961686316195], "rotation": [0.6999512775596846, 0.0, 0.0, 0.7141905971395629], "children": [7]}, {"translation": [0.0, 0.0, 0.0], "scale": [1.0, 1.0, 1.0], "rotation": [0.0, 0.0, 0.0, 1.0]}, {"translation": [0.580020760392999, 0.0, 0.7609164960744763], "scale": [0.3034720877863379, 0.6149891522647054, 1.2890106016246665], "rotation": [0.0, 0.0, 0.0, 1.0], "children": [9]}, {"translation": [0.0, 0.0, 0.0], "scale": [1.0, 1.0, 1.0], "rotation": [0.0, 0.0, 0.0, 1.0]}, {"translation": [0.20278738845955874, 0.5051884395805386, 0.5731791379132343], "scale": [0.3269930790094603, 0.654529509143084, 1.1745351904959462], "rotation": [0.10174100243581752, 0.06311847263871259, 0.5233830322455902, 0.8436438990430277], "children": [11]}, {"translation": [0.0, 0.0, 0.0], "scale": [1.0, 1.0, 1.0], "rotation": [0.0, 0.0, 0.0, 1.0]}, {"translation": [0.8125677926892036, -0.5523268716014933, 1.0488246789303552], "scale": [0.2517166254300235, 0.5647768922100865, 1.2890106016246665], "rotation": [0.11711128817383341, 0.06464856350547911, 0.4789368828038284, 0.8675972404918628], "children": [13]}, {"translation": [0.0, 0.0, 0.0], "scale": [1.0, 1.0, 1.0], "rotation": [0.0, 0.0, 0.0, 1.0]}, {"translation": [-0.3598608252310218, 0.5054434095530014, 0.5683964812796396], "scale": [0.2401316475175327, 0.5327381156473898, 0.6273866500380172], "rotation": [-0.05999216432187391, 0.12907013011036872, -0.45541076300582567, 0.8788304038161866], "children": [15]}, {"translation": [0.0, 0.0, 0.0], "scale": [1.0, 1.0, 1.0], "rotation": [0.0, 0.0, 0.0, 1.0]}, {"translation": [-0.7145597439718094, 0.18354112140579887, 0.3275363400474811], "scale": [0.18295173967102712, 0.3283231802305036, 0.55904360724594], "rotation": [0.0, 0.0, -0.022328223385655762, 0.9997506941435151], "children": [17]}, {"translation": [0.0, 0.0, 0.0], "scale": [1.0, 1.0, 1.0], "rotation": [0.0, 0.0, 0.0, 1.0]}, {"translation": [0.0, 0.0, 0.0], "scale": [1.0, 1.0, 1.0], "rotation": [0.0, 0.0, 0.0, 1.0], "children": [19]}, {"translation": [0.0, 0.0, 0.0], "scale": [1.0, 1.0, 1.0], "rotation": [0.0, 0.0, 0.0, 1.0]}, {"translation": [-0.25259145699029906, -0.06435656608260218, 0.5632397242758886], "scale": [0.5626638251244087, 0.5626078083400806, 0.6859622071096798], "rotation": [0.0, 0.0, 0.16089915138781533, 0.9869708521950792], "children": [21]}, {"translation": [0.0, 0.0, 0.0], "scale": [1.0, 1.0, 1.0], "rotation": [0.0, 0.0, 0.0, 1.0]}, {"translation": [0.0, 0.0, 0.0], "scale": [1.0, 1.0, 1.0], "rotation": [0.0, 0.0, 0.0, 1.0], "mesh": 0}], "bufferViews": [{"buffer": 0, "byteLength": 9300, "byteOffset": 0, "target": 34963}, {"buffer": 0, "byteLength": 22392, "byteOffset": 9300, "target": 34962}, {"buffer": 0, "byteLength": 22392, "byteOffset": 31692, "target": 34962}, {"buffer": 0, "byteLength": 14928, "byteOffset": 54084, "target": 34962}], "buffers": [{"byteLength": 69012, "uri": "data:application/octet-stream;base64,"}], "asset": {"version": "2.0", "generator": "maya-glTFExport"}}