{"accessors": [{"count": 624, "min": [0], "max": [453], "bufferView": 0, "componentType": 5123, "byteOffset": 0, "type": "SCALAR"}, {"count": 454, "min": [-1.0777827501296997, -0.20898014307022095, -0.49433937668800354], "max": [1.0777827501296997, 2.536109447479248, 0.30380377173423767], "bufferView": 1, "componentType": 5126, "byteOffset": 0, "type": "VEC3"}, {"componentType": 5126, "count": 454, "bufferView": 2, "type": "VEC3", "byteOffset": 0}, {"componentType": 5126, "count": 454, "bufferView": 3, "type": "VEC2", "byteOffset": 0}, {"count": 240, "min": [0], "max": [124], "bufferView": 4, "componentType": 5123, "byteOffset": 0, "type": "SCALAR"}, {"count": 125, "min": [-1.000000238418579, -1.0, -1.0000004768371582], "max": [1.0, 1.0, 1.0000001192092896], "bufferView": 5, "componentType": 5126, "byteOffset": 0, "type": "VEC3"}, {"componentType": 5126, "count": 125, "bufferView": 6, "type": "VEC3", "byteOffset": 0}, {"componentType": 5126, "count": 125, "bufferView": 7, "type": "VEC2", "byteOffset": 0}, {"count": 36, "min": [0], "max": [31], "bufferView": 8, "componentType": 5123, "byteOffset": 0, "type": "SCALAR"}, {"count": 32, "min": [-0.5, -0.5, -0.4826989471912384], "max": [0.5, 0.5, 0.30319297313690186], "bufferView": 9, "componentType": 5126, "byteOffset": 0, "type": "VEC3"}, {"componentType": 5126, "count": 32, "bufferView": 10, "type": "VEC3", "byteOffset": 0}, {"componentType": 5126, "count": 32, "bufferView": 11, "type": "VEC2", "byteOffset": 0}, {"count": 36, "min": [0], "max": [31], "bufferView": 12, "componentType": 5123, "byteOffset": 0, "type": "SCALAR"}, {"count": 32, "min": [-0.5, -0.5, -0.3823382556438446], "max": [0.5, 0.5, 0.23810359835624695], "bufferView": 13, "componentType": 5126, "byteOffset": 0, "type": "VEC3"}, {"componentType": 5126, "count": 32, "bufferView": 14, "type": "VEC3", "byteOffset": 0}, {"componentType": 5126, "count": 32, "bufferView": 15, "type": "VEC2", "byteOffset": 0}, {"count": 36, "min": [0], "max": [31], "bufferView": 16, "componentType": 5123, "byteOffset": 0, "type": "SCALAR"}, {"count": 32, "min": [-0.5, -0.5, -0.37973493337631226], "max": [0.5, 0.5, 0.2275758981704712], "bufferView": 17, "componentType": 5126, "byteOffset": 0, "type": "VEC3"}, {"componentType": 5126, "count": 32, "bufferView": 18, "type": "VEC3", "byteOffset": 0}, {"componentType": 5126, "count": 32, "bufferView": 19, "type": "VEC2", "byteOffset": 0}], "scenes": [{"nodes": [0, 2, 4, 5, 6, 7, 8], "name": "defaultScene"}], "scene": 0, "materials": [{"alphaMode": "OPAQUE", "pbrMetallicRoughness": {"roughnessFactor": 1, "metallicFactor": 0, "baseColorFactor": [1.0, 1.0, 1.0, 1.0]}}, {"alphaMode": "OPAQUE", "pbrMetallicRoughness": {"roughnessFactor": 1, "metallicFactor": 0, "baseColorFactor": [0.0, 0.11538338661193848, 1.0, 1.0]}}, {"alphaMode": "OPAQUE", "pbrMetallicRoughness": {"roughnessFactor": 1, "metallicFactor": 0, "baseColorFactor": [0.9977999925613403, 1.0, 0.0, 1.0]}}, {"alphaMode": "OPAQUE", "pbrMetallicRoughness": {"roughnessFactor": 1, "metallicFactor": 0, "baseColorFactor": [0.0, 0.0, 0.0, 1.0]}}], "meshes": [{"primitives": [{"indices": 0, "attributes": {"POSITION": 1, "TEXCOORD_0": 3, "NORMAL": 2}, "material": 0, "mode": 4}]}, {"primitives": [{"indices": 4, "attributes": {"POSITION": 5, "TEXCOORD_0": 7, "NORMAL": 6}, "material": 1, "mode": 4}]}, {"primitives": [{"indices": 8, "attributes": {"POSITION": 9, "TEXCOORD_0": 11, "NORMAL": 10}, "material": 2, "mode": 4}]}, {"primitives": [{"indices": 12, "attributes": {"POSITION": 13, "TEXCOORD_0": 15, "NORMAL": 14}, "material": 3, "mode": 4}]}, {"primitives": [{"indices": 16, "attributes": {"POSITION": 17, "TEXCOORD_0": 19, "NORMAL": 18}, "material": 3, "mode": 4}]}], "nodes": [{"translation": [0.0, 1.214436785847228, -0.09526779800391344], "scale": [2.155565599102697, 2.643345669986854, 0.7981431752993856], "rotation": [0.0, 0.0, 0.0, 1.0], "children": [1]}, {"translation": [0.0, 0.0, 0.0], "scale": [1.0, 1.0, 1.0], "rotation": [0.0, 0.0, 0.0, 1.0]}, {"translation": [-0.37185896254055895, 1.7355203880843624, -0.10222199881267846], "scale": [0.8126302563581035, 1.0, 1.9168758764324452], "rotation": [0.0, 0.0, 0.0037782587057046584, 0.9999928623551034], "children": [3]}, {"translation": [0.0, 0.0, 0.0], "scale": [1.0, 1.0, 1.0], "rotation": [0.0, 0.0, 0.0, 1.0]}, {"translation": [0.0, 0.0, 0.0], "scale": [1.0, 1.0, 1.0], "rotation": [0.0, 0.0, 0.0, 1.0], "mesh": 0}, {"translation": [0.5352654899698414, 2.561204864823927, -0.11511335266315059], "scale": [0.15822879252596922, 0.1787694468033562, 0.14207366750976141], "rotation": [0.0, 0.0, 0.0, 1.0], "mesh": 1}, {"translation": [0.4659707752863572, 1.2516798045343656, 0.0], "scale": [0.7223956016462346, 1.1447926586296335, 1.0], "rotation": [0.0, 0.0, 0.0, 1.0], "mesh": 2}, {"translation": [0.4659707752863572, 1.2516798045343656, 0.0], "scale": [0.14375012532087184, 0.7242409866267239, 1.2278958070450143], "rotation": [0.0, 0.0, -0.3177887174336355, 0.9481615532555013], "mesh": 3}, {"translation": [0.4659707752863572, 1.2516798045343656, 0.0], "scale": [0.1457237472593195, 0.7188923355059956, 1.2600191378786982], "rotation": [0.0, 0.0, 0.45642728310249314, 0.889760717968419], "mesh": 4}], "bufferViews": [{"buffer": 0, "byteLength": 1248, "byteOffset": 0, "target": 34963}, {"buffer": 0, "byteLength": 5448, "byteOffset": 1248, "target": 34962}, {"buffer": 0, "byteLength": 5448, "byteOffset": 6696, "target": 34962}, {"buffer": 0, "byteLength": 3632, "byteOffset": 12144, "target": 34962}, {"buffer": 0, "byteLength": 480, "byteOffset": 15776, "target": 34963}, {"buffer": 0, "byteLength": 1500, "byteOffset": 16256, "target": 34962}, {"buffer": 0, "byteLength": 1500, "byteOffset": 17756, "target": 34962}, {"buffer": 0, "byteLength": 1000, "byteOffset": 19256, "target": 34962}, {"buffer": 0, "byteLength": 72, "byteOffset": 20256, "target": 34963}, {"buffer": 0, "byteLength": 384, "byteOffset": 20328, "target": 34962}, {"buffer": 0, "byteLength": 384, "byteOffset": 20712, "target": 34962}, {"buffer": 0, "byteLength": 256, "byteOffset": 21096, "target": 34962}, {"buffer": 0, "byteLength": 72, "byteOffset": 21352, "target": 34963}, {"buffer": 0, "byteLength": 384, "byteOffset": 21424, "target": 34962}, {"buffer": 0, "byteLength": 384, "byteOffset": 21808, "target": 34962}, {"buffer": 0, "byteLength": 256, "byteOffset": 22192, "target": 34962}, {"buffer": 0, "byteLength": 72, "byteOffset": 22448, "target": 34963}, {"buffer": 0, "byteLength": 384, "byteOffset": 22520, "target": 34962}, {"buffer": 0, "byteLength": 384, "byteOffset": 22904, "target": 34962}, {"buffer": 0, "byteLength": 256, "byteOffset": 23288, "target": 34962}], "buffers": [{"byteLength": 23544, "uri": "data:application/octet-stream;base64,"}], "asset": {"version": "2.0", "generator": "maya-glTFExport"}}