{"accessors": [{"count": 1056, "min": [0], "max": [833], "bufferView": 0, "componentType": 5123, "byteOffset": 0, "type": "SCALAR"}, {"count": 834, "min": [-0.8587581515312195, -1.1103299856185913, -0.34367334842681885], "max": [0.8587581515312195, 1.2522801160812378, 0.34367334842681885], "bufferView": 1, "componentType": 5126, "byteOffset": 0, "type": "VEC3"}, {"componentType": 5126, "count": 834, "bufferView": 2, "type": "VEC3", "byteOffset": 0}, {"componentType": 5126, "count": 834, "bufferView": 3, "type": "VEC2", "byteOffset": 0}], "scenes": [{"nodes": [0, 2, 4, 6, 8, 10, 12, 14], "name": "defaultScene"}], "scene": 0, "materials": [{"alphaMode": "OPAQUE", "pbrMetallicRoughness": {"roughnessFactor": 1, "metallicFactor": 0, "baseColorFactor": [1.0, 0.9896000027656555, 0.0, 1.0]}}], "meshes": [{"primitives": [{"indices": 0, "attributes": {"POSITION": 1, "TEXCOORD_0": 3, "NORMAL": 2}, "material": 0, "mode": 4}]}], "nodes": [{"translation": [0.0, 0.0, 0.0], "scale": [1.717516316231633, 2.220660036014909, 0.9451024380311397], "rotation": [0.0, 0.0, 0.0, 1.0], "children": [1]}, {"translation": [0.0, 0.0, 0.0], "scale": [1.0, 1.0, 1.0], "rotation": [0.0, 0.0, 0.0, 1.0]}, {"translation": [-0.46594905781397045, 0.5709481286554967, 0.0], "scale": [0.2892243676353419, 0.6144313497240301, 0.9834731041679345], "rotation": [0.0, 0.0, 0.0, 1.0], "children": [3]}, {"translation": [0.0, 0.0, 0.0], "scale": [1.0, 1.0, 1.0], "rotation": [0.0, 0.0, 0.0, 1.0]}, {"translation": [0.0, 0.0, 0.0], "scale": [1.0, 1.0, 0.5204805163320017], "rotation": [0.0, 0.0, 0.0, 1.0], "children": [5]}, {"translation": [0.0, 0.0, 0.0], "scale": [1.0, 1.0, 1.0], "rotation": [0.0, 0.0, 0.0, 1.0]}, {"translation": [0.3789453639278027, 1.1669807734416087, 0.0], "scale": [0.18434785342759996, 0.08529937517118341, 0.17291727468828677], "rotation": [0.0, 0.0, 0.0, 1.0], "children": [7]}, {"translation": [0.0, 0.0, 0.0], "scale": [1.0, 1.0, 1.0], "rotation": [0.0, 0.0, 0.0, 1.0]}, {"translation": [-0.058341734271929874, -0.4266231822663185, 0.0], "scale": [1.249495060210269, 0.9552197616022697, 0.663515653476978], "rotation": [0.0, 0.0, 0.0, 1.0], "children": [9]}, {"translation": [0.0, 0.0, 0.0], "scale": [1.0, 1.0, 1.0], "rotation": [0.0, 0.0, 0.0, 1.0]}, {"translation": [-0.058341734271929874, -0.4266231822663185, 0.0], "scale": [1.249495060210269, 0.2374880985965477, 0.6958915524623261], "rotation": [0.0, 0.0, 0.31695858690643836, 0.948439378234726], "children": [11]}, {"translation": [0.0, 0.0, 0.0], "scale": [1.0, 1.0, 1.0], "rotation": [0.0, 0.0, 0.0, 1.0]}, {"translation": [-0.058341734271929874, -0.4266231822663185, 0.0039482418470128955], "scale": [1.0953819691381628, 0.1830635312099243, 0.7148837205652425], "rotation": [0.0, 0.0, -0.32375117511172846, 0.9461422602409084], "children": [13]}, {"translation": [0.0, 0.0, 0.0], "scale": [1.0, 1.0, 1.0], "rotation": [0.0, 0.0, 0.0, 1.0]}, {"translation": [0.0, 0.0, 0.0], "scale": [1.0, 1.0, 1.0], "rotation": [0.0, 0.0, 0.0, 1.0], "mesh": 0}], "bufferViews": [{"buffer": 0, "byteLength": 2112, "byteOffset": 0, "target": 34963}, {"buffer": 0, "byteLength": 10008, "byteOffset": 2112, "target": 34962}, {"buffer": 0, "byteLength": 10008, "byteOffset": 12120, "target": 34962}, {"buffer": 0, "byteLength": 6672, "byteOffset": 22128, "target": 34962}], "buffers": [{"byteLength": 28800, "uri": "data:application/octet-stream;base64,"}], "asset": {"version": "2.0", "generator": "maya-glTFExport"}}