{"accessors": [{"count": 128694, "min": [0], "max": [38254], "bufferView": 0, "componentType": 5123, "byteOffset": 0, "type": "SCALAR"}, {"count": 38255, "min": [-1.5411452054977417, -0.28902706503868103, -1.852297306060791], "max": [1.322558045387268, 1.2832772731781006, 1.1899182796478271], "bufferView": 1, "componentType": 5126, "byteOffset": 0, "type": "VEC3"}, {"componentType": 5126, "count": 38255, "bufferView": 2, "type": "VEC3", "byteOffset": 0}, {"componentType": 5126, "count": 38255, "bufferView": 3, "type": "VEC2", "byteOffset": 0}], "scenes": [{"nodes": [0, 2, 4, 6, 8, 10, 12, 14, 16, 18, 20, 22, 24, 26, 28, 30, 32, 34, 36, 38, 40, 42, 44, 46, 48, 50, 52, 54, 56, 58, 60, 62, 64, 66, 68, 70, 72, 74, 76, 78], "name": "defaultScene"}], "scene": 0, "materials": [{"alphaMode": "OPAQUE", "pbrMetallicRoughness": {"roughnessFactor": 1, "metallicFactor": 0, "baseColorFactor": [0.2313690036535263, 0.26968875527381897, 0.3310000002384186, 1.0]}}], "meshes": [{"primitives": [{"indices": 0, "attributes": {"POSITION": 1, "TEXCOORD_0": 3, "NORMAL": 2}, "material": 0, "mode": 4}]}], "nodes": [{"translation": [0.0, 0.0, 0.0010692402897032882], "scale": [0.15083479672975147, 0.15083479672975147, 0.8198929135241343], "rotation": [0.0, 0.0, 0.0, 1.0], "children": [1]}, {"translation": [0.0, 0.0, 0.0], "scale": [1.0, 1.0, 1.0], "rotation": [0.0, 0.0, 0.0, 1.0]}, {"translation": [0.0, 0.0, -0.7869986865954006], "scale": [0.08718032807481614, 0.18882770228542292, 0.3704461347133328], "rotation": [0.0, 0.0, 0.0, 1.0], "children": [3]}, {"translation": [0.0, 0.0, 0.0], "scale": [1.0, 1.0, 1.0], "rotation": [0.0, 0.0, 0.0, 1.0]}, {"translation": [0.0, 0.06459740756673493, 0.020918335929668352], "scale": [0.08718032807481614, 0.31218758069464714, 0.13801161734223166], "rotation": [-0.20825904307837312, 0.0, 0.0, 0.9780737042657267], "children": [5]}, {"translation": [0.0, 0.0, 0.0], "scale": [1.0, 1.0, 1.0], "rotation": [0.0, 0.0, 0.0, 1.0]}, {"translation": [0.0, 0.0, 0.369059320517089], "scale": [1.0, 1.0, 1.0], "rotation": [-0.06595241818862753, 0.0, 0.0, 0.997822769100341], "children": [7]}, {"translation": [0.0, 0.0, 0.0], "scale": [1.0, 1.0, 1.0], "rotation": [0.0, 0.0, 0.0, 1.0]}, {"translation": [0.44277690022448324, 0.1502248610318993, -0.6501579858109254], "scale": [0.8362064954120557, 0.7822326361308511, 0.7139105856300558], "rotation": [0.17709030215570887, 0.16500590280117838, -0.03013102392514554, 0.9697959570550859], "children": [9]}, {"translation": [0.0, 0.0, 0.0], "scale": [1.0, 1.0, 1.0], "rotation": [0.0, 0.0, 0.0, 1.0]}, {"translation": [0.43972290390339186, 0.406642531329622, 0.6499515616400634], "scale": [0.8362064954120557, 0.7822326361308511, 0.7139105856300558], "rotation": [0.05344576870375651, 0.02315588386251142, 0.11269599556308826, 0.9919208473634653], "children": [11]}, {"translation": [0.0, 0.0, 0.0], "scale": [1.0, 1.0, 1.0], "rotation": [0.0, 0.0, 0.0, 1.0]}, {"translation": [-0.3587700987940846, 0.406642531329622, 0.36832006235496295], "scale": [1.0, 1.0, 0.7594985856825682], "rotation": [0.04431374346307205, -0.055805113199299414, 0.11658957821597986, 0.9906204882458883], "children": [13]}, {"translation": [0.0, 0.0, 0.0], "scale": [1.0, 1.0, 1.0], "rotation": [0.0, 0.0, 0.0, 1.0]}, {"translation": [-0.8158504157560654, 0.406642531329622, -0.4785131658164419], "scale": [0.8362064954120557, 0.7822326361308511, 0.7139105856300558], "rotation": [0.014139755862513587, 0.018676785100012996, 0.11352427084873816, 0.9932590220736678], "children": [15]}, {"translation": [0.0, 0.0, 0.0], "scale": [1.0, 1.0, 1.0], "rotation": [0.0, 0.0, 0.0, 1.0]}, {"translation": [-1.3819287278712455, 0.406642531329622, -0.4785131658164419], "scale": [1.0, 1.0, 0.7594985856825682], "rotation": [0.04431374346307205, -0.055805113199299414, 0.11658957821597986, 0.9906204882458883], "children": [17]}, {"translation": [0.0, 0.0, 0.0], "scale": [1.0, 1.0, 1.0], "rotation": [0.0, 0.0, 0.0, 1.0]}, {"translation": [-0.5611113467030621, 0.0, -0.9867865615444864], "scale": [0.8362064954120557, 0.7822326361308511, 0.7139105856300558], "rotation": [0.0, 0.07953018634341086, 0.0, 0.9968324580691493], "children": [19]}, {"translation": [0.0, 0.0, 0.0], "scale": [1.0, 1.0, 1.0], "rotation": [0.0, 0.0, 0.0, 1.0]}, {"translation": [-0.9317990231544288, 0.0, 0.21066962067172046], "scale": [1.0, 1.0, 1.0], "rotation": [0.0, 0.11442307694227341, 0.0, 0.9934321111495554], "children": [21]}, {"translation": [0.0, 0.0, 0.0], "scale": [1.0, 1.0, 1.0], "rotation": [0.0, 0.0, 0.0, 1.0]}, {"translation": [0.7838008368186616, 0.406642531329622, -0.818273920270252], "scale": [0.8362064954120557, 0.7822326361308511, 0.7139105856300558], "rotation": [0.05344576870375651, 0.02315588386251142, 0.11269599556308826, 0.9919208473634653], "children": [23]}, {"translation": [0.0, 0.0, 0.0], "scale": [1.0, 1.0, 1.0], "rotation": [0.0, 0.0, 0.0, 1.0]}, {"translation": [0.0, 0.9488669342133544, 0.0], "scale": [1.0, 1.0, 1.0], "rotation": [0.09350168107204547, 0.0, 0.0, 0.9956191217713235], "children": [25]}, {"translation": [0.0, 0.0, 0.0], "scale": [1.0, 1.0, 1.0], "rotation": [0.0, 0.0, 0.0, 1.0]}, {"translation": [0.27236439016766556, 0.7408964170630956, -1.0627354333262575], "scale": [0.8362064954120557, 0.6392691894240804, 0.51538595714286], "rotation": [0.03946233722943847, 0.14263081399588204, 0.11831974285249758, 0.9818857435010353], "children": [27]}, {"translation": [0.0, 0.0, 0.0], "scale": [1.0, 1.0, 1.0], "rotation": [0.0, 0.0, 0.0, 1.0]}, {"translation": [-1.0250965914866155, 0.406642531329622, 0.7165067226480022], "scale": [0.8362064954120557, 0.7822326361308511, 0.617572396575023], "rotation": [-0.07745036549672611, 0.1334248310847908, -0.06622548649573398, 0.9858059851070198], "children": [29]}, {"translation": [0.0, 0.0, 0.0], "scale": [1.0, 1.0, 1.0], "rotation": [0.0, 0.0, 0.0, 1.0]}, {"translation": [-0.6737758555045159, 0.9109354687926556, -0.4785131658164419], "scale": [0.8362064954120557, 0.7822326361308511, 0.7139105856300558], "rotation": [0.0, 0.03179600626749235, 0.0, 0.9994943791665052], "children": [31]}, {"translation": [0.0, 0.0, 0.0], "scale": [1.0, 1.0, 1.0], "rotation": [0.0, 0.0, 0.0, 1.0]}, {"translation": [1.1586371111427316, 0.406642531329622, 0.0], "scale": [1.0, 1.0, 0.7594985856825682], "rotation": [0.04431374346307205, -0.055805113199299414, 0.11658957821597986, 0.9906204882458883], "children": [33]}, {"translation": [0.0, 0.0, 0.0], "scale": [1.0, 1.0, 1.0], "rotation": [0.0, 0.0, 0.0, 1.0]}, {"translation": [-1.1685558795770858, 1.0060861382735522, 0.35166787567254837], "scale": [0.35882087961386844, 0.3547954762673347, 0.3086026331303797], "rotation": [-0.07745036549672611, 0.1334248310847908, -0.06622548649573398, 0.9858059851070198], "children": [35]}, {"translation": [0.0, 0.0, 0.0], "scale": [1.0, 1.0, 1.0], "rotation": [0.0, 0.0, 0.0, 1.0]}, {"translation": [0.7562377841334647, 0.8226893333048979, 0.35166787567254837], "scale": [0.35882087961386844, 0.3547954762673347, 0.3086026331303797], "rotation": [0.21814642252750677, -0.029998015404012812, -0.04713739485431219, 0.9743153100596439], "children": [37]}, {"translation": [0.0, 0.0, 0.0], "scale": [1.0, 1.0, 1.0], "rotation": [0.0, 0.0, 0.0, 1.0]}, {"translation": [1.0457979575713496, 0.8226893333048979, -0.7287521478147749], "scale": [0.35882087961386844, 0.3547954762673347, 0.3086026331303797], "rotation": [0.07197016632262214, -0.02972456131493481, -0.04928323788466651, 0.9957449011055655], "children": [39]}, {"translation": [0.0, 0.0, 0.0], "scale": [1.0, 1.0, 1.0], "rotation": [0.0, 0.0, 0.0, 1.0]}, {"translation": [-1.0910615424623176, 0.8226893333048979, -0.7287521478147749], "scale": [0.35882087961386844, 0.3547954762673347, 0.3086026331303797], "rotation": [-0.08672817387595638, -0.020036713811388395, -0.05350325254893376, 0.994592457201676], "children": [41]}, {"translation": [0.0, 0.0, 0.0], "scale": [1.0, 1.0, 1.0], "rotation": [0.0, 0.0, 0.0, 1.0]}, {"translation": [-0.9317990231544288, -0.015059265151833756, 0.21066962067172046], "scale": [1.0, 1.0, 1.0], "rotation": [0.0, 0.11442307694227341, 0.0, 0.9934321111495554], "children": [43]}, {"translation": [0.0, 0.0, 0.0], "scale": [1.0, 1.0, 1.0], "rotation": [0.0, 0.0, 0.0, 1.0]}, {"translation": [-1.3819287278712455, 0.39158326617778827, -0.4785131658164419], "scale": [1.0, 1.0, 0.7594985856825682], "rotation": [0.04431374346307205, -0.055805113199299414, 0.11658957821597986, 0.9906204882458883], "children": [45]}, {"translation": [0.0, 0.0, 0.0], "scale": [1.0, 1.0, 1.0], "rotation": [0.0, 0.0, 0.0, 1.0]}, {"translation": [-0.5611113467030621, -0.015059265151833756, -0.9867865615444864], "scale": [0.8362064954120557, 0.7822326361308511, 0.7139105856300558], "rotation": [0.0, 0.07953018634341086, 0.0, 0.9968324580691493], "children": [47]}, {"translation": [0.0, 0.0, 0.0], "scale": [1.0, 1.0, 1.0], "rotation": [0.0, 0.0, 0.0, 1.0]}, {"translation": [-0.8158504157560654, 0.39158326617778827, -0.4785131658164419], "scale": [0.8362064954120557, 0.7822326361308511, 0.7139105856300558], "rotation": [0.014139755862513587, 0.018676785100012996, 0.11352427084873816, 0.9932590220736678], "children": [49]}, {"translation": [0.0, 0.0, 0.0], "scale": [1.0, 1.0, 1.0], "rotation": [0.0, 0.0, 0.0, 1.0]}, {"translation": [-1.1685558795770858, 0.9910268731217184, 0.35166787567254837], "scale": [0.35882087961386844, 0.3547954762673347, 0.3086026331303797], "rotation": [-0.07745036549672611, 0.1334248310847908, -0.06622548649573398, 0.9858059851070198], "children": [51]}, {"translation": [0.0, 0.0, 0.0], "scale": [1.0, 1.0, 1.0], "rotation": [0.0, 0.0, 0.0, 1.0]}, {"translation": [1.1586371111427316, 0.39158326617778827, 0.0], "scale": [1.0, 1.0, 0.7594985856825682], "rotation": [0.04431374346307205, -0.055805113199299414, 0.11658957821597986, 0.9906204882458883], "children": [53]}, {"translation": [0.0, 0.0, 0.0], "scale": [1.0, 1.0, 1.0], "rotation": [0.0, 0.0, 0.0, 1.0]}, {"translation": [-1.0910615424623176, 0.8076300681530642, -0.7287521478147749], "scale": [0.35882087961386844, 0.3547954762673347, 0.3086026331303797], "rotation": [-0.08672817387595638, -0.020036713811388395, -0.05350325254893376, 0.994592457201676], "children": [55]}, {"translation": [0.0, 0.0, 0.0], "scale": [1.0, 1.0, 1.0], "rotation": [0.0, 0.0, 0.0, 1.0]}, {"translation": [-0.6737758555045159, 0.8958762036408219, -0.4785131658164419], "scale": [0.8362064954120557, 0.7822326361308511, 0.7139105856300558], "rotation": [0.0, 0.03179600626749235, 0.0, 0.9994943791665052], "children": [57]}, {"translation": [0.0, 0.0, 0.0], "scale": [1.0, 1.0, 1.0], "rotation": [0.0, 0.0, 0.0, 1.0]}, {"translation": [-1.0250965914866155, 0.39158326617778827, 0.7165067226480022], "scale": [0.8362064954120557, 0.7822326361308511, 0.617572396575023], "rotation": [-0.07745036549672611, 0.1334248310847908, -0.06622548649573398, 0.9858059851070198], "children": [59]}, {"translation": [0.0, 0.0, 0.0], "scale": [1.0, 1.0, 1.0], "rotation": [0.0, 0.0, 0.0, 1.0]}, {"translation": [0.7838008368186616, 0.39158326617778827, -0.818273920270252], "scale": [0.8362064954120557, 0.7822326361308511, 0.7139105856300558], "rotation": [0.05344576870375651, 0.02315588386251142, 0.11269599556308826, 0.9919208473634653], "children": [61]}, {"translation": [0.0, 0.0, 0.0], "scale": [1.0, 1.0, 1.0], "rotation": [0.0, 0.0, 0.0, 1.0]}, {"translation": [0.27236439016766556, 0.7258371519112619, -1.0627354333262575], "scale": [0.8362064954120557, 0.6392691894240804, 0.51538595714286], "rotation": [0.03946233722943847, 0.14263081399588204, 0.11831974285249758, 0.9818857435010353], "children": [63]}, {"translation": [0.0, 0.0, 0.0], "scale": [1.0, 1.0, 1.0], "rotation": [0.0, 0.0, 0.0, 1.0]}, {"translation": [0.0, 0.9338076690615207, 0.0], "scale": [1.0, 1.0, 1.0], "rotation": [0.09350168107204547, 0.0, 0.0, 0.9956191217713235], "children": [65]}, {"translation": [0.0, 0.0, 0.0], "scale": [1.0, 1.0, 1.0], "rotation": [0.0, 0.0, 0.0, 1.0]}, {"translation": [0.43972290390339186, 0.39158326617778827, 0.6499515616400634], "scale": [0.8362064954120557, 0.7822326361308511, 0.7139105856300558], "rotation": [0.05344576870375651, 0.02315588386251142, 0.11269599556308826, 0.9919208473634653], "children": [67]}, {"translation": [0.0, 0.0, 0.0], "scale": [1.0, 1.0, 1.0], "rotation": [0.0, 0.0, 0.0, 1.0]}, {"translation": [-0.3587700987940846, 0.39158326617778827, 0.36832006235496295], "scale": [1.0, 1.0, 0.7594985856825682], "rotation": [0.04431374346307205, -0.055805113199299414, 0.11658957821597986, 0.9906204882458883], "children": [69]}, {"translation": [0.0, 0.0, 0.0], "scale": [1.0, 1.0, 1.0], "rotation": [0.0, 0.0, 0.0, 1.0]}, {"translation": [0.44277690022448324, 0.13516559588006555, -0.6501579858109254], "scale": [0.8362064954120557, 0.7822326361308511, 0.7139105856300558], "rotation": [0.17709030215570887, 0.16500590280117838, -0.03013102392514554, 0.9697959570550859], "children": [71]}, {"translation": [0.0, 0.0, 0.0], "scale": [1.0, 1.0, 1.0], "rotation": [0.0, 0.0, 0.0, 1.0]}, {"translation": [0.0, -0.015059265151833756, 0.369059320517089], "scale": [1.0, 1.0, 1.0], "rotation": [-0.06595241818862753, 0.0, 0.0, 0.997822769100341], "children": [73]}, {"translation": [0.0, 0.0, 0.0], "scale": [1.0, 1.0, 1.0], "rotation": [0.0, 0.0, 0.0, 1.0]}, {"translation": [1.0457979575713496, 0.8076300681530642, -0.7287521478147749], "scale": [0.35882087961386844, 0.3547954762673347, 0.3086026331303797], "rotation": [0.07197016632262214, -0.02972456131493481, -0.04928323788466651, 0.9957449011055655], "children": [75]}, {"translation": [0.0, 0.0, 0.0], "scale": [1.0, 1.0, 1.0], "rotation": [0.0, 0.0, 0.0, 1.0]}, {"translation": [0.7562377841334647, 0.8076300681530642, 0.35166787567254837], "scale": [0.35882087961386844, 0.3547954762673347, 0.3086026331303797], "rotation": [0.21814642252750677, -0.029998015404012812, -0.04713739485431219, 0.9743153100596439], "children": [77]}, {"translation": [0.0, 0.0, 0.0], "scale": [1.0, 1.0, 1.0], "rotation": [0.0, 0.0, 0.0, 1.0]}, {"translation": [0.0, 0.0, 0.0], "scale": [1.0, 1.0, 1.0], "rotation": [0.0, 0.0, 0.0, 1.0], "mesh": 0}], "bufferViews": [{"buffer": 0, "byteLength": 257388, "byteOffset": 0, "target": 34963}, {"buffer": 0, "byteLength": 459060, "byteOffset": 257388, "target": 34962}, {"buffer": 0, "byteLength": 459060, "byteOffset": 716448, "target": 34962}, {"buffer": 0, "byteLength": 306040, "byteOffset": 1175508, "target": 34962}], "buffers": [{"byteLength": 1481548, "uri": "data:application/octet-stream;base64,"}], "asset": {"version": "2.0", "generator": "maya-glTFExport"}}