{"accessors": [{"count": 23670, "min": [0], "max": [6932], "bufferView": 0, "componentType": 5123, "byteOffset": 0, "type": "SCALAR"}, {"count": 6933, "min": [-3.9688267707824707, -0.801884114742279, -3.0124919414520264], "max": [3.807915687561035, 0.801884114742279, 3.9527506828308105], "bufferView": 1, "componentType": 5126, "byteOffset": 0, "type": "VEC3"}, {"componentType": 5126, "count": 6933, "bufferView": 2, "type": "VEC3", "byteOffset": 0}, {"componentType": 5126, "count": 6933, "bufferView": 3, "type": "VEC2", "byteOffset": 0}, {"count": 3168, "min": [0], "max": [2061], "bufferView": 4, "componentType": 5123, "byteOffset": 0, "type": "SCALAR"}, {"count": 2062, "min": [-1.5960004329681396, -1.0644559860229492, 0.03137257695198059], "max": [4.027017116546631, 2.310159921646118, 3.913142442703247], "bufferView": 5, "componentType": 5126, "byteOffset": 0, "type": "VEC3"}, {"componentType": 5126, "count": 2062, "bufferView": 6, "type": "VEC3", "byteOffset": 0}, {"componentType": 5126, "count": 2062, "bufferView": 7, "type": "VEC2", "byteOffset": 0}], "scenes": [{"nodes": [0, 2, 4, 6, 8, 10, 12, 14, 16, 18, 20, 22, 24, 26, 28, 30, 32, 34, 36, 38, 40, 42, 43], "name": "defaultScene"}], "scene": 0, "materials": [{"alphaMode": "OPAQUE", "pbrMetallicRoughness": {"roughnessFactor": 1, "metallicFactor": 0, "baseColorFactor": [0.25, 0.3122999966144562, 0.0, 1.0]}}, {"alphaMode": "OPAQUE", "pbrMetallicRoughness": {"roughnessFactor": 1, "metallicFactor": 0, "baseColorFactor": [0.6987951993942261, 0.6987951993942261, 0.6987951993942261, 1.0]}}], "meshes": [{"primitives": [{"indices": 0, "attributes": {"POSITION": 1, "TEXCOORD_0": 3, "NORMAL": 2}, "material": 0, "mode": 4}]}, {"primitives": [{"indices": 4, "attributes": {"POSITION": 5, "TEXCOORD_0": 7, "NORMAL": 6}, "material": 1, "mode": 4}]}], "nodes": [{"translation": [0.0, 0.0, 0.0], "scale": [2.1480181659999587, 0.8018841066609795, 2.7960421300352616], "rotation": [0.0, 0.0, 0.0, 1.0], "children": [1]}, {"translation": [0.0, 0.0, 0.0], "scale": [1.0, 1.0, 1.0], "rotation": [0.0, 0.0, 0.0, 1.0]}, {"translation": [0.0, 0.0, 2.8745078385384035], "scale": [0.38217987854280044, 0.30763588434827577, 0.6270520971781536], "rotation": [0.0, 0.0, 0.0, 1.0], "children": [3]}, {"translation": [0.0, 0.0, 0.0], "scale": [1.0, 1.0, 1.0], "rotation": [0.0, 0.0, 0.0, 1.0]}, {"translation": [0.0, 0.0, -2.448098078501313], "scale": [0.46927761278549707, 0.336252648268725, 0.5643933901439867], "rotation": [0.0, 0.0, 0.0, 1.0], "children": [5]}, {"translation": [0.0, 0.0, 0.0], "scale": [1.0, 1.0, 1.0], "rotation": [0.0, 0.0, 0.0, 1.0]}, {"translation": [2.7880684984092365, -0.2473638972431853, 1.8440293199402178], "scale": [1.152493428118117, 0.21972722175450937, 0.49301725259496343], "rotation": [-0.022309905775289487, 0.24557114025354881, -0.08768269642874219, 0.9651470498975039], "children": [7]}, {"translation": [0.0, 0.0, 0.0], "scale": [1.0, 1.0, 1.0], "rotation": [0.0, 0.0, 0.0, 1.0]}, {"translation": [1.6635428824000806, 0.0, 2.0145097908690257], "scale": [0.7174404563071894, 0.15719198987095107, 0.2570493434620642], "rotation": [0.02615558868414252, -0.3283606069802817, -0.07497207337021061, 0.9412090018580881], "children": [9]}, {"translation": [0.0, 0.0, 0.0], "scale": [1.0, 1.0, 1.0], "rotation": [0.0, 0.0, 0.0, 1.0]}, {"translation": [1.6635428824000806, 0.0, -1.8013313457689577], "scale": [0.7174404563071894, 0.15719198987095107, 0.2570493434620642], "rotation": [-0.003907850730199955, 0.0236825303839695, -0.16276133531251383, 0.9863734658761711], "children": [11]}, {"translation": [0.0, 0.0, 0.0], "scale": [1.0, 1.0, 1.0], "rotation": [0.0, 0.0, 0.0, 1.0]}, {"translation": [2.274768277912689, -0.17924763159454532, -2.3399448317041154], "scale": [0.6602215118354751, 0.2148842861560131, 0.4642907763913103], "rotation": [0.06744125080194, 0.6323235417186414, -0.05539908969064878, 0.7697724060656571], "children": [13]}, {"translation": [0.0, 0.0, 0.0], "scale": [1.0, 1.0, 1.0], "rotation": [0.0, 0.0, 0.0, 1.0]}, {"translation": [0.0, 0.0, 3.221229272217731], "scale": [0.5508176315704315, 0.41776368083952986, 0.535045571372461], "rotation": [0.0, 0.0, 0.0, 1.0], "children": [15]}, {"translation": [0.0, 0.0, 0.0], "scale": [1.0, 1.0, 1.0], "rotation": [0.0, 0.0, 0.0, 1.0]}, {"translation": [0.0, -0.06729484149022658, 3.437615120093428], "scale": [0.34389307117206974, 0.30763588434827577, 0.5151355000768583], "rotation": [0.0, 0.0, 0.0, 1.0], "children": [17]}, {"translation": [0.0, 0.0, 0.0], "scale": [1.0, 1.0, 1.0], "rotation": [0.0, 0.0, 0.0, 1.0]}, {"translation": [-1.8380436727441996, -0.16220508106745818, 2.0145097908690257], "scale": [0.7174404563071894, 0.15719198987095107, 0.2570493434620642], "rotation": [0.1128773381433433, -0.9562509778299249, -0.10652968471577554, 0.2479802415664264], "children": [19]}, {"translation": [0.0, 0.0, 0.0], "scale": [1.0, 1.0, 1.0], "rotation": [0.0, 0.0, 0.0, 1.0]}, {"translation": [-2.962036425269287, -0.3913465487476108, 1.6849651337258154], "scale": [1.152493428118117, 0.21972722175450937, 0.49301725259496343], "rotation": [0.03942833137424648, -0.26196623477327924, 0.08152482823064036, 0.9608188179390109], "children": [21]}, {"translation": [0.0, 0.0, 0.0], "scale": [1.0, 1.0, 1.0], "rotation": [0.0, 0.0, 0.0, 1.0]}, {"translation": [-1.847926539990502, 0.0, -1.5841352905759247], "scale": [0.7174404563071894, 0.15719198987095107, 0.2570493434620642], "rotation": [-0.10008099386756417, -0.17440629898543858, 0.06503461951656572, 0.9774132881258665], "children": [23]}, {"translation": [0.0, 0.0, 0.0], "scale": [1.0, 1.0, 1.0], "rotation": [0.0, 0.0, 0.0, 1.0]}, {"translation": [-2.277791786509754, -0.17924763159454532, -2.279167109716255], "scale": [0.6602215118354751, 0.2148842861560131, 0.4642907763913103], "rotation": [-0.1283814114770765, 0.6229156380161832, -0.013741119238392857, 0.7715604336305234], "children": [25]}, {"translation": [0.0, 0.0, 0.0], "scale": [1.0, 1.0, 1.0], "rotation": [0.0, 0.0, 0.0, 1.0]}, {"translation": [0.0, 2.720902655084891, 0.0], "scale": [1.0, 0.04438772282742394, 1.0], "rotation": [0.0, 0.0, 0.0, 1.0], "children": [27]}, {"translation": [0.0, 0.0, 0.0], "scale": [1.0, 1.0, 1.0], "rotation": [0.0, 0.0, 0.0, 1.0]}, {"translation": [0.0, 2.720902655084891, 0.0], "scale": [0.8626578122128087, 0.054960190168269016, 0.8626578122128087], "rotation": [0.0, 0.0, 0.0, 1.0], "children": [29]}, {"translation": [0.0, 0.0, 0.0], "scale": [1.0, 1.0, 1.0], "rotation": [0.0, 0.0, 0.0, 1.0]}, {"translation": [2.3852981908617017, -1.1726280932200346, 0.9629912028271785], "scale": [1.0, 1.0, 1.0], "rotation": [0.2901975839679069, 0.20273177251232533, -0.27677773568108527, 0.8933528282288312], "children": [31]}, {"translation": [0.0, 0.0, 0.0], "scale": [1.0, 1.0, 1.0], "rotation": [0.0, 0.0, 0.0, 1.0]}, {"translation": [3.242378796135364, -2.6652141889027234, 1.7206580410512582], "scale": [1.0, 1.0, 1.0], "rotation": [0.41439248331464373, 0.24913250136529919, -0.26831856311562735, 0.8331968646264561], "children": [33]}, {"translation": [0.0, 0.0, 0.0], "scale": [1.0, 1.0, 1.0], "rotation": [0.0, 0.0, 0.0, 1.0]}, {"translation": [1.9002296065927884, -2.814472851543352, 3.0249458473870616], "scale": [1.0, 1.0, 1.0], "rotation": [0.4849588742049739, 0.1416542312085122, -0.2419639994531964, 0.8283733409998074], "children": [35]}, {"translation": [0.0, 0.0, 0.0], "scale": [1.0, 1.0, 1.0], "rotation": [0.0, 0.0, 0.0, 1.0]}, {"translation": [1.1488775688883732, -1.3049926127734766, 2.3210575654913312], "scale": [1.0, 1.0, 1.0], "rotation": [0.27039952653746446, -0.24163424476421627, -0.27580740374831736, 0.8901838371050972], "children": [37]}, {"translation": [0.0, 0.0, 0.0], "scale": [1.0, 1.0, 1.0], "rotation": [0.0, 0.0, 0.0, 1.0]}, {"translation": [0.1644179072718217, -2.814472851543352, 3.5844575222308634], "scale": [1.0, 1.0, 1.0], "rotation": [0.5974306769231625, 0.0, 0.0, 0.8019205610726862], "children": [39]}, {"translation": [0.0, 0.0, 0.0], "scale": [1.0, 1.0, 1.0], "rotation": [0.0, 0.0, 0.0, 1.0]}, {"translation": [-0.6055877353837226, -1.436961579391998, 2.7247798248858532], "scale": [1.0, 1.0, 1.0], "rotation": [0.39066105397995726, -0.03718758913253151, 0.0871694731183755, 0.9156432204052207], "children": [41]}, {"translation": [0.0, 0.0, 0.0], "scale": [1.0, 1.0, 1.0], "rotation": [0.0, 0.0, 0.0, 1.0]}, {"translation": [0.09645922056263678, 0.047219103817981445, -1.316551738434861], "scale": [1.7467475159250299, 1.865949319248892, 1.8232948596284533], "rotation": [0.0, 0.0, 0.0, 1.0], "mesh": 0}, {"translation": [0.0, 0.0, 0.44247019070539717], "scale": [1.0, 1.0, 1.0], "rotation": [0.0, 0.0, 0.0, 1.0], "mesh": 1}], "bufferViews": [{"buffer": 0, "byteLength": 47340, "byteOffset": 0, "target": 34963}, {"buffer": 0, "byteLength": 83196, "byteOffset": 47340, "target": 34962}, {"buffer": 0, "byteLength": 83196, "byteOffset": 130536, "target": 34962}, {"buffer": 0, "byteLength": 55464, "byteOffset": 213732, "target": 34962}, {"buffer": 0, "byteLength": 6336, "byteOffset": 269196, "target": 34963}, {"buffer": 0, "byteLength": 24744, "byteOffset": 275532, "target": 34962}, {"buffer": 0, "byteLength": 24744, "byteOffset": 300276, "target": 34962}, {"buffer": 0, "byteLength": 16496, "byteOffset": 325020, "target": 34962}], "buffers": [{"byteLength": 341516, "uri": "data:application/octet-stream;base64,"}], "asset": {"version": "2.0", "generator": "maya-glTFExport"}}