{"accessors": [{"count": 7800, "min": [0], "max": [3381], "bufferView": 0, "componentType": 5123, "byteOffset": 0, "type": "SCALAR"}, {"count": 3382, "min": [-3.0788774490356445, -0.6694966554641724, -2.884028434753418], "max": [2.831094980239868, 7.234472274780273, 2.9462759494781494], "bufferView": 1, "componentType": 5126, "byteOffset": 0, "type": "VEC3"}, {"componentType": 5126, "count": 3382, "bufferView": 2, "type": "VEC3", "byteOffset": 0}, {"componentType": 5126, "count": 3382, "bufferView": 3, "type": "VEC2", "byteOffset": 0}], "scenes": [{"nodes": [0, 2, 4, 6, 8, 10, 12, 14, 16, 18, 20, 22, 24, 26], "name": "defaultScene"}], "scene": 0, "materials": [{"alphaMode": "OPAQUE", "pbrMetallicRoughness": {"roughnessFactor": 1, "metallicFactor": 0, "baseColorFactor": [0.34615039825439453, 0.0, 1.0, 1.0]}}], "meshes": [{"primitives": [{"indices": 0, "attributes": {"POSITION": 1, "TEXCOORD_0": 3, "NORMAL": 2}, "material": 0, "mode": 4}]}], "nodes": [{"translation": [0.0, 0.0, 0.0], "scale": [1.3742432156055142, 1.3742432156055142, 1.3742432156055142], "rotation": [0.0, 0.0, 0.0, 1.0], "children": [1]}, {"translation": [0.0, 0.0, 0.0], "scale": [1.0, 1.0, 1.0], "rotation": [0.0, 0.0, 0.0, 1.0]}, {"translation": [-0.08888159718293392, 2.8873581037529217, -1.0720802380281038], "scale": [1.0, 1.0, 1.0], "rotation": [-0.25901610741138137, -0.021947061771956804, -0.08152748383941938, 0.9621757905704377], "children": [3]}, {"translation": [0.0, 0.0, 0.0], "scale": [1.0, 1.0, 1.0], "rotation": [0.0, 0.0, 0.0, 1.0]}, {"translation": [-0.17576392352115683, 1.140348232111209, 0.9014417823470983], "scale": [1.0, 1.894856930568436, 1.0], "rotation": [0.2836828754942123, -0.06141987810019431, -0.05793101687150188, 0.9551940232275986], "children": [5]}, {"translation": [0.0, 0.0, 0.0], "scale": [1.0, 1.0, 1.0], "rotation": [0.0, 0.0, 0.0, 1.0]}, {"translation": [-0.07915780187168009, 4.292026463491363, -0.9208100471983078], "scale": [0.665603046823304, 1.3645820496269667, 0.665603046823304], "rotation": [0.11239576538189194, -0.0503512265142799, -0.06777284212807266, 0.9900700923584196], "children": [7]}, {"translation": [0.0, 0.0, 0.0], "scale": [1.0, 1.0, 1.0], "rotation": [0.0, 0.0, 0.0, 1.0]}, {"translation": [1.0868154471035631, 3.00677558472369, 1.3427252471431055], "scale": [0.665603046823304, 1.0449105964611147, 0.665603046823304], "rotation": [0.11866703099861468, -0.03295739433340341, -0.21522917795229757, 0.9687664046975951], "children": [9]}, {"translation": [0.0, 0.0, 0.0], "scale": [1.0, 1.0, 1.0], "rotation": [0.0, 0.0, 0.0, 1.0]}, {"translation": [0.0, 0.16740057189570534, 0.0], "scale": [1.3742432156055142, 1.7751672209634335, 1.9859410864096505], "rotation": [0.0, 0.7360281815936058, 0.0, 0.6769508962251324], "children": [11]}, {"translation": [0.0, 0.0, 0.0], "scale": [1.0, 1.0, 1.0], "rotation": [0.0, 0.0, 0.0, 1.0]}, {"translation": [-1.536995089540282, 3.792798535461184, 0.1782009021798021], "scale": [1.0, 1.3834562982910836, 1.0], "rotation": [-0.08301899881037401, 0.07572940645611863, 0.1602458755347278, 0.9806600645526642], "children": [13]}, {"translation": [0.0, 0.0, 0.0], "scale": [1.0, 1.0, 1.0], "rotation": [0.0, 0.0, 0.0, 1.0]}, {"translation": [1.2614611541759722, 1.7220982603631363, 0.11200533045556876], "scale": [0.8905497330192317, 1.6058339430894721, 0.8905497330192317], "rotation": [-0.0036257655037030085, -0.005735874178714098, -0.21766232708182462, 0.9760005455640088], "children": [15]}, {"translation": [0.0, 0.0, 0.0], "scale": [1.0, 1.0, 1.0], "rotation": [0.0, 0.0, 0.0, 1.0]}, {"translation": [0.4523240618005546, 0.2918651752943793, 0.5460960965862285], "scale": [1.0, 1.894856930568436, 1.0], "rotation": [0.396618616908722, -0.023940711830331085, -0.293505994982261, 0.8694680821904518], "children": [17]}, {"translation": [0.0, 0.0, 0.0], "scale": [1.0, 1.0, 1.0], "rotation": [0.0, 0.0, 0.0, 1.0]}, {"translation": [0.4523240618005546, 0.2918651752943793, -0.3618506902021078], "scale": [1.0, 1.894856930568436, 1.0], "rotation": [-0.08014343746810831, 0.5409630430560279, -0.3615524134618783, 0.7551263919359781], "children": [19]}, {"translation": [0.0, 0.0, 0.0], "scale": [1.0, 1.0, 1.0], "rotation": [0.0, 0.0, 0.0, 1.0]}, {"translation": [-1.0422985678896195, 2.3434820831728267, 0.3623481905757826], "scale": [1.0, 1.3834562982910836, 1.0], "rotation": [0.3344516830336243, 0.07397059719524508, 0.33222597495253703, 0.8788039167148671], "children": [21]}, {"translation": [0.0, 0.0, 0.0], "scale": [1.0, 1.0, 1.0], "rotation": [0.0, 0.0, 0.0, 1.0]}, {"translation": [-0.5757191200443239, 0.4422438189701987, -0.3419816677378894], "scale": [1.0, 1.3834562982910836, 1.0], "rotation": [-0.16347734498127142, 0.7804819912936782, -0.41542814057170413, -0.43765566255364013], "children": [23]}, {"translation": [0.0, 0.0, 0.0], "scale": [1.0, 1.0, 1.0], "rotation": [0.0, 0.0, 0.0, 1.0]}, {"translation": [-1.8658976184972507, 2.850417255157728, -1.6119372838441541], "scale": [0.6185696144857626, 0.8557640290918159, 0.6185696144857626], "rotation": [-0.053591744539494154, 0.857406201157303, -0.21584087872693106, -0.4641069340190926], "children": [25]}, {"translation": [0.0, 0.0, 0.0], "scale": [1.0, 1.0, 1.0], "rotation": [0.0, 0.0, 0.0, 1.0]}, {"translation": [0.0, 0.0, 0.0], "scale": [1.0, 1.0, 1.0], "rotation": [0.0, 0.0, 0.0, 1.0], "mesh": 0}], "bufferViews": [{"buffer": 0, "byteLength": 15600, "byteOffset": 0, "target": 34963}, {"buffer": 0, "byteLength": 40584, "byteOffset": 15600, "target": 34962}, {"buffer": 0, "byteLength": 40584, "byteOffset": 56184, "target": 34962}, {"buffer": 0, "byteLength": 27056, "byteOffset": 96768, "target": 34962}], "buffers": [{"byteLength": 123824, "uri": "data:application/octet-stream;base64,"}], "asset": {"version": "2.0", "generator": "maya-glTFExport"}}