{"accessors": [{"count": 1644, "min": [0], "max": [1264], "bufferView": 0, "componentType": 5123, "byteOffset": 0, "type": "SCALAR"}, {"count": 1265, "min": [-1.4360311031341553, -0.9605385065078735, -1.4791057109832764], "max": [1.9318640232086182, 2.4809253215789795, 1.4238296747207642], "bufferView": 1, "componentType": 5126, "byteOffset": 0, "type": "VEC3"}, {"componentType": 5126, "count": 1265, "bufferView": 2, "type": "VEC3", "byteOffset": 0}, {"componentType": 5126, "count": 1265, "bufferView": 3, "type": "VEC2", "byteOffset": 0}], "scenes": [{"nodes": [0, 2, 4, 6, 8, 10, 12, 14, 16, 18], "name": "defaultScene"}], "scene": 0, "materials": [{"alphaMode": "OPAQUE", "pbrMetallicRoughness": {"roughnessFactor": 1, "metallicFactor": 0, "baseColorFactor": [1.0, 0.6923167109489441, 0.0, 1.0]}}], "meshes": [{"primitives": [{"indices": 0, "attributes": {"POSITION": 1, "TEXCOORD_0": 3, "NORMAL": 2}, "material": 0, "mode": 4}]}], "nodes": [{"translation": [0.0, 0.0, 0.0], "scale": [1.0, 1.1747771225628363, 1.0], "rotation": [0.0, 0.0, 0.0, 1.0], "children": [1]}, {"translation": [0.0, 0.0, 0.0], "scale": [1.0, 1.0, 1.0], "rotation": [0.0, 0.0, 0.0, 1.0]}, {"translation": [0.6163341377987347, 0.0, 0.7560417025189525], "scale": [0.8180570853684455, 0.8700281639537729, 0.8180570853684455], "rotation": [0.11547691267707472, -0.009658350771998349, -0.08278628690756072, 0.9898071678862481], "children": [3]}, {"translation": [0.0, 0.0, 0.0], "scale": [1.0, 1.0, 1.0], "rotation": [0.0, 0.0, 0.0, 1.0]}, {"translation": [0.9284844005017964, 0.0, -0.05746071398464436], "scale": [0.8835778031540918, 0.7304329872676076, 0.9441729817266221], "rotation": [-0.12948724749317653, 0.023839315246752257, -0.1770113020581176, 0.9753623627805701], "children": [5]}, {"translation": [0.0, 0.0, 0.0], "scale": [1.0, 1.0, 1.0], "rotation": [0.0, 0.0, 0.0, 1.0]}, {"translation": [0.462429143827383, 0.0, -0.7250688646197392], "scale": [0.6487948888231515, 0.6303754212847593, 0.6221526192220441], "rotation": [-0.22106260810812597, 0.046159445115573565, -0.0031047591093315754, 0.9741616854475075], "children": [7]}, {"translation": [0.0, 0.0, 0.0], "scale": [1.0, 1.0, 1.0], "rotation": [0.0, 0.0, 0.0, 1.0]}, {"translation": [1.4161527856502927, 0.0, 0.6539187329995635], "scale": [0.6487948888231515, 0.6303754212847593, 0.6221526192220441], "rotation": [0.06721787920937843, 0.050027456674610254, -0.11309075258272053, 0.9900451969347346], "children": [9]}, {"translation": [0.0, 0.0, 0.0], "scale": [1.0, 1.0, 1.0], "rotation": [0.0, 0.0, 0.0, 1.0]}, {"translation": [-0.08647439456428163, 0.0, 0.8128076103355937], "scale": [0.6487948888231515, 0.6303754212847593, 0.6221526192220441], "rotation": [0.07575222689894194, 0.035813263277559584, 0.08405826591616966, 0.9929316281720659], "children": [11]}, {"translation": [0.0, 0.0, 0.0], "scale": [1.0, 1.0, 1.0], "rotation": [0.0, 0.0, 0.0, 1.0]}, {"translation": [-0.19987923190703277, 0.0, -0.8215624943646068], "scale": [0.6487948888231515, 0.38957167530366144, 0.6221526192220441], "rotation": [-0.09338207869043062, 0.025784232755011394, 0.13963300264734235, 0.9854529848208776], "children": [13]}, {"translation": [0.0, 0.0, 0.0], "scale": [1.0, 1.0, 1.0], "rotation": [0.0, 0.0, 0.0, 1.0]}, {"translation": [-0.6869740609834247, 0.0, 0.47704060416255967], "scale": [0.6487948888231515, 0.38957167530366144, 0.6221526192220441], "rotation": [-0.008109364433723232, 0.2977845342433033, 0.18058506933813798, 0.937362065642791], "children": [15]}, {"translation": [0.0, 0.0, 0.0], "scale": [1.0, 1.0, 1.0], "rotation": [0.0, 0.0, 0.0, 1.0]}, {"translation": [-0.7641599456549464, 0.0, -0.41716093780887653], "scale": [0.6487948888231515, 0.6003805277728984, 0.6221526192220441], "rotation": [-0.05586851371018718, 0.5364697387087456, 0.1719169515643928, 0.8243321480995334], "children": [17]}, {"translation": [0.0, 0.0, 0.0], "scale": [1.0, 1.0, 1.0], "rotation": [0.0, 0.0, 0.0, 1.0]}, {"translation": [0.0, 0.0, 0.0], "scale": [1.0, 1.0, 1.0], "rotation": [0.0, 0.0, 0.0, 1.0], "mesh": 0}], "bufferViews": [{"buffer": 0, "byteLength": 3288, "byteOffset": 0, "target": 34963}, {"buffer": 0, "byteLength": 15180, "byteOffset": 3288, "target": 34962}, {"buffer": 0, "byteLength": 15180, "byteOffset": 18468, "target": 34962}, {"buffer": 0, "byteLength": 10120, "byteOffset": 33648, "target": 34962}], "buffers": [{"byteLength": 43768, "uri": "data:application/octet-stream;base64,"}], "asset": {"version": "2.0", "generator": "maya-glTFExport"}}