{"accessors": [{"count": 144, "min": [0], "max": [51], "bufferView": 0, "componentType": 5123, "byteOffset": 0, "type": "SCALAR"}, {"count": 52, "min": [-0.5, -0.5, -0.5], "max": [0.5, 0.5, 0.5], "bufferView": 1, "componentType": 5126, "byteOffset": 0, "type": "VEC3"}, {"componentType": 5126, "count": 52, "bufferView": 2, "type": "VEC3", "byteOffset": 0}, {"componentType": 5126, "count": 52, "bufferView": 3, "type": "VEC2", "byteOffset": 0}], "scenes": [{"nodes": [0], "name": "defaultScene"}], "scene": 0, "materials": [{"alphaMode": "OPAQUE", "pbrMetallicRoughness": {"roughnessFactor": 1, "metallicFactor": 0, "baseColorFactor": [1.0, 0.972135066986084, 0.5879999995231628, 1.0]}}], "meshes": [{"primitives": [{"indices": 0, "attributes": {"POSITION": 1, "TEXCOORD_0": 3, "NORMAL": 2}, "material": 0, "mode": 4}]}], "nodes": [{"translation": [0.0, -0.6353511889327257, 0.0], "scale": [6.773114320986299, 2.244833618896602, 6.773114320986299], "rotation": [0.0, 0.0, 0.0, 1.0], "mesh": 0}], "bufferViews": [{"buffer": 0, "byteLength": 288, "byteOffset": 0, "target": 34963}, {"buffer": 0, "byteLength": 624, "byteOffset": 288, "target": 34962}, {"buffer": 0, "byteLength": 624, "byteOffset": 912, "target": 34962}, {"buffer": 0, "byteLength": 416, "byteOffset": 1536, "target": 34962}], "buffers": [{"byteLength": 1952, "uri": "data:application/octet-stream;base64,"}], "asset": {"version": "2.0", "generator": "maya-glTFExport"}}