{"accessors": [{"count": 720, "min": [0], "max": [393], "bufferView": 0, "componentType": 5123, "byteOffset": 0, "type": "SCALAR"}, {"count": 394, "min": [-3.263322353363037, -1.2843409776687622, -3.101327896118164], "max": [2.8839027881622314, 2.3476502895355225, 3.3184571266174316], "bufferView": 1, "componentType": 5126, "byteOffset": 0, "type": "VEC3"}, {"componentType": 5126, "count": 394, "bufferView": 2, "type": "VEC3", "byteOffset": 0}, {"componentType": 5126, "count": 394, "bufferView": 3, "type": "VEC2", "byteOffset": 0}], "scenes": [{"nodes": [0, 2, 4, 6], "name": "defaultScene"}], "scene": 0, "materials": [{"alphaMode": "OPAQUE", "pbrMetallicRoughness": {"roughnessFactor": 1, "metallicFactor": 0, "baseColorFactor": [1.0, 0.0, 0.34610000252723694, 1.0]}}], "meshes": [{"primitives": [{"indices": 0, "attributes": {"POSITION": 1, "TEXCOORD_0": 3, "NORMAL": 2}, "material": 0, "mode": 4}]}], "nodes": [{"translation": [0.0, 0.0, 0.0], "scale": [1.0, 1.0, 1.0], "rotation": [0.0, 0.0, 0.0, 1.0], "children": [1]}, {"translation": [0.0, 0.0, 0.0], "scale": [1.0, 1.0, 1.0], "rotation": [0.0, 0.0, 0.0, 1.0]}, {"translation": [0.0, 0.0, 0.0], "scale": [1.0, 1.0, 1.0], "rotation": [0.0, 0.9785180023905276, 0.0, -0.20616139065705671], "children": [3]}, {"translation": [0.0, 0.0, 0.0], "scale": [1.0, 1.0, 1.0], "rotation": [0.0, 0.0, 0.0, 1.0]}, {"translation": [0.0, 0.3623131758401491, 0.04949119252583645], "scale": [0.7251919702887614, 1.141882988093644, 1.0], "rotation": [0.009692617474773416, -0.22711834973810707, -0.02987293972880606, 0.9733606299058358], "children": [5]}, {"translation": [0.0, 0.0, 0.0], "scale": [1.0, 1.0, 1.0], "rotation": [0.0, 0.0, 0.0, 1.0]}, {"translation": [0.0, 0.0, 0.0], "scale": [1.0, 1.0, 1.0], "rotation": [0.0, 0.0, 0.0, 1.0], "mesh": 0}], "bufferViews": [{"buffer": 0, "byteLength": 1440, "byteOffset": 0, "target": 34963}, {"buffer": 0, "byteLength": 4728, "byteOffset": 1440, "target": 34962}, {"buffer": 0, "byteLength": 4728, "byteOffset": 6168, "target": 34962}, {"buffer": 0, "byteLength": 3152, "byteOffset": 10896, "target": 34962}], "buffers": [{"byteLength": 14048, "uri": "data:application/octet-stream;base64,"}], "asset": {"version": "2.0", "generator": "maya-glTFExport"}}