{"accessors": [{"count": 180, "min": [0], "max": [133], "bufferView": 0, "componentType": 5123, "byteOffset": 0, "type": "SCALAR"}, {"count": 134, "min": [-0.5, -0.817634642124176, -0.5], "max": [0.5, 2.1118264198303223, 0.5], "bufferView": 1, "componentType": 5126, "byteOffset": 0, "type": "VEC3"}, {"componentType": 5126, "count": 134, "bufferView": 2, "type": "VEC3", "byteOffset": 0}, {"componentType": 5126, "count": 134, "bufferView": 3, "type": "VEC2", "byteOffset": 0}, {"count": 180, "min": [0], "max": [133], "bufferView": 4, "componentType": 5123, "byteOffset": 0, "type": "SCALAR"}, {"count": 134, "min": [-0.5, -1.0279853343963623, -0.5], "max": [0.5, 2.1118264198303223, 0.5], "bufferView": 5, "componentType": 5126, "byteOffset": 0, "type": "VEC3"}, {"componentType": 5126, "count": 134, "bufferView": 6, "type": "VEC3", "byteOffset": 0}, {"componentType": 5126, "count": 134, "bufferView": 7, "type": "VEC2", "byteOffset": 0}, {"count": 204, "min": [0], "max": [155], "bufferView": 8, "componentType": 5123, "byteOffset": 0, "type": "SCALAR"}, {"count": 156, "min": [-0.5000001192092896, -0.9914239645004272, -0.4999999403953552], "max": [0.6059812307357788, 2.1118266582489014, 0.5], "bufferView": 9, "componentType": 5126, "byteOffset": 0, "type": "VEC3"}, {"componentType": 5126, "count": 156, "bufferView": 10, "type": "VEC3", "byteOffset": 0}, {"componentType": 5126, "count": 156, "bufferView": 11, "type": "VEC2", "byteOffset": 0}, {"count": 180, "min": [0], "max": [132], "bufferView": 12, "componentType": 5123, "byteOffset": 0, "type": "SCALAR"}, {"count": 133, "min": [-0.5, -0.9312705993652344, -0.5], "max": [0.5, 2.1118264198303223, 0.5], "bufferView": 13, "componentType": 5126, "byteOffset": 0, "type": "VEC3"}, {"componentType": 5126, "count": 133, "bufferView": 14, "type": "VEC3", "byteOffset": 0}, {"componentType": 5126, "count": 133, "bufferView": 15, "type": "VEC2", "byteOffset": 0}, {"count": 180, "min": [0], "max": [131], "bufferView": 16, "componentType": 5123, "byteOffset": 0, "type": "SCALAR"}, {"count": 132, "min": [-0.5, -1.4058375358581543, -0.5], "max": [0.5, 2.1118264198303223, 0.5], "bufferView": 17, "componentType": 5126, "byteOffset": 0, "type": "VEC3"}, {"componentType": 5126, "count": 132, "bufferView": 18, "type": "VEC3", "byteOffset": 0}, {"componentType": 5126, "count": 132, "bufferView": 19, "type": "VEC2", "byteOffset": 0}, {"count": 180, "min": [0], "max": [131], "bufferView": 20, "componentType": 5123, "byteOffset": 0, "type": "SCALAR"}, {"count": 132, "min": [-0.5, -1.1793212890625, -0.5], "max": [0.5, 2.1118264198303223, 0.5], "bufferView": 21, "componentType": 5126, "byteOffset": 0, "type": "VEC3"}, {"componentType": 5126, "count": 132, "bufferView": 22, "type": "VEC3", "byteOffset": 0}, {"componentType": 5126, "count": 132, "bufferView": 23, "type": "VEC2", "byteOffset": 0}, {"count": 180, "min": [0], "max": [132], "bufferView": 24, "componentType": 5123, "byteOffset": 0, "type": "SCALAR"}, {"count": 133, "min": [-0.5, -1.5694955587387085, -0.5], "max": [0.5, 2.1118264198303223, 0.5], "bufferView": 25, "componentType": 5126, "byteOffset": 0, "type": "VEC3"}, {"componentType": 5126, "count": 133, "bufferView": 26, "type": "VEC3", "byteOffset": 0}, {"componentType": 5126, "count": 133, "bufferView": 27, "type": "VEC2", "byteOffset": 0}, {"count": 180, "min": [0], "max": [131], "bufferView": 28, "componentType": 5123, "byteOffset": 0, "type": "SCALAR"}, {"count": 132, "min": [-0.5, -2.0795042514801025, -0.5], "max": [0.5, 2.1118264198303223, 0.5], "bufferView": 29, "componentType": 5126, "byteOffset": 0, "type": "VEC3"}, {"componentType": 5126, "count": 132, "bufferView": 30, "type": "VEC3", "byteOffset": 0}, {"componentType": 5126, "count": 132, "bufferView": 31, "type": "VEC2", "byteOffset": 0}, {"count": 180, "min": [0], "max": [132], "bufferView": 32, "componentType": 5123, "byteOffset": 0, "type": "SCALAR"}, {"count": 133, "min": [-0.5, -1.2256064414978027, -0.5], "max": [0.5, 2.1118264198303223, 0.5], "bufferView": 33, "componentType": 5126, "byteOffset": 0, "type": "VEC3"}, {"componentType": 5126, "count": 133, "bufferView": 34, "type": "VEC3", "byteOffset": 0}, {"componentType": 5126, "count": 133, "bufferView": 35, "type": "VEC2", "byteOffset": 0}], "scenes": [{"nodes": [0, 1, 2, 3, 4, 5, 6, 7, 8], "name": "defaultScene"}], "scene": 0, "materials": [{"alphaMode": "OPAQUE", "pbrMetallicRoughness": {"roughnessFactor": 1, "metallicFactor": 0, "baseColorFactor": [1.0, 0.6923167109489441, 0.0, 1.0]}}], "meshes": [{"primitives": [{"indices": 0, "attributes": {"POSITION": 1, "TEXCOORD_0": 3, "NORMAL": 2}, "material": 0, "mode": 4}]}, {"primitives": [{"indices": 4, "attributes": {"POSITION": 5, "TEXCOORD_0": 7, "NORMAL": 6}, "material": 0, "mode": 4}]}, {"primitives": [{"indices": 8, "attributes": {"POSITION": 9, "TEXCOORD_0": 11, "NORMAL": 10}, "material": 0, "mode": 4}]}, {"primitives": [{"indices": 12, "attributes": {"POSITION": 13, "TEXCOORD_0": 15, "NORMAL": 14}, "material": 0, "mode": 4}]}, {"primitives": [{"indices": 16, "attributes": {"POSITION": 17, "TEXCOORD_0": 19, "NORMAL": 18}, "material": 0, "mode": 4}]}, {"primitives": [{"indices": 20, "attributes": {"POSITION": 21, "TEXCOORD_0": 23, "NORMAL": 22}, "material": 0, "mode": 4}]}, {"primitives": [{"indices": 24, "attributes": {"POSITION": 25, "TEXCOORD_0": 27, "NORMAL": 26}, "material": 0, "mode": 4}]}, {"primitives": [{"indices": 28, "attributes": {"POSITION": 29, "TEXCOORD_0": 31, "NORMAL": 30}, "material": 0, "mode": 4}]}, {"primitives": [{"indices": 32, "attributes": {"POSITION": 33, "TEXCOORD_0": 35, "NORMAL": 34}, "material": 0, "mode": 4}]}], "nodes": [{"translation": [0.0, 0.0, 0.0], "scale": [1.0, 1.1747771225628363, 1.0], "rotation": [0.0, 0.0, 0.0, 1.0], "mesh": 0}, {"translation": [0.6163341377987347, 0.0, 0.7560417025189525], "scale": [0.8180570853684455, 0.8700281639537729, 0.8180570853684455], "rotation": [0.11547691267707472, -0.009658350771998349, -0.08278628690756072, 0.9898071678862481], "mesh": 1}, {"translation": [0.9284844005017964, 0.0, -0.05746071398464436], "scale": [0.8835778031540918, 0.7304329872676076, 0.9441729817266221], "rotation": [-0.12948724749317653, 0.023839315246752257, -0.1770113020581176, 0.9753623627805701], "mesh": 2}, {"translation": [0.462429143827383, 0.0, -0.7250688646197392], "scale": [0.6487948888231515, 0.6303754212847593, 0.6221526192220441], "rotation": [-0.22106260810812597, 0.046159445115573565, -0.0031047591093315754, 0.9741616854475075], "mesh": 3}, {"translation": [1.4161527856502927, 0.0, 0.6539187329995635], "scale": [0.6487948888231515, 0.6303754212847593, 0.6221526192220441], "rotation": [0.06721787920937843, 0.050027456674610254, -0.11309075258272053, 0.9900451969347346], "mesh": 4}, {"translation": [-0.08647439456428163, 0.0, 0.8128076103355937], "scale": [0.6487948888231515, 0.6303754212847593, 0.6221526192220441], "rotation": [0.07575222689894194, 0.035813263277559584, 0.08405826591616966, 0.9929316281720659], "mesh": 5}, {"translation": [-0.19987923190703277, 0.0, -0.8215624943646068], "scale": [0.6487948888231515, 0.38957167530366144, 0.6221526192220441], "rotation": [-0.09338207869043062, 0.025784232755011394, 0.13963300264734235, 0.9854529848208776], "mesh": 6}, {"translation": [-0.6869740609834247, 0.0, 0.47704060416255967], "scale": [0.6487948888231515, 0.38957167530366144, 0.6221526192220441], "rotation": [-0.008109364433723232, 0.2977845342433033, 0.18058506933813798, 0.937362065642791], "mesh": 7}, {"translation": [-0.7641599456549464, 0.0, -0.41716093780887653], "scale": [0.6487948888231515, 0.6003805277728984, 0.6221526192220441], "rotation": [-0.05586851371018718, 0.5364697387087456, 0.1719169515643928, 0.8243321480995334], "mesh": 8}], "bufferViews": [{"buffer": 0, "byteLength": 360, "byteOffset": 0, "target": 34963}, {"buffer": 0, "byteLength": 1608, "byteOffset": 360, "target": 34962}, {"buffer": 0, "byteLength": 1608, "byteOffset": 1968, "target": 34962}, {"buffer": 0, "byteLength": 1072, "byteOffset": 3576, "target": 34962}, {"buffer": 0, "byteLength": 360, "byteOffset": 4648, "target": 34963}, {"buffer": 0, "byteLength": 1608, "byteOffset": 5008, "target": 34962}, {"buffer": 0, "byteLength": 1608, "byteOffset": 6616, "target": 34962}, {"buffer": 0, "byteLength": 1072, "byteOffset": 8224, "target": 34962}, {"buffer": 0, "byteLength": 408, "byteOffset": 9296, "target": 34963}, {"buffer": 0, "byteLength": 1872, "byteOffset": 9704, "target": 34962}, {"buffer": 0, "byteLength": 1872, "byteOffset": 11576, "target": 34962}, {"buffer": 0, "byteLength": 1248, "byteOffset": 13448, "target": 34962}, {"buffer": 0, "byteLength": 360, "byteOffset": 14696, "target": 34963}, {"buffer": 0, "byteLength": 1596, "byteOffset": 15056, "target": 34962}, {"buffer": 0, "byteLength": 1596, "byteOffset": 16652, "target": 34962}, {"buffer": 0, "byteLength": 1064, "byteOffset": 18248, "target": 34962}, {"buffer": 0, "byteLength": 360, "byteOffset": 19312, "target": 34963}, {"buffer": 0, "byteLength": 1584, "byteOffset": 19672, "target": 34962}, {"buffer": 0, "byteLength": 1584, "byteOffset": 21256, "target": 34962}, {"buffer": 0, "byteLength": 1056, "byteOffset": 22840, "target": 34962}, {"buffer": 0, "byteLength": 360, "byteOffset": 23896, "target": 34963}, {"buffer": 0, "byteLength": 1584, "byteOffset": 24256, "target": 34962}, {"buffer": 0, "byteLength": 1584, "byteOffset": 25840, "target": 34962}, {"buffer": 0, "byteLength": 1056, "byteOffset": 27424, "target": 34962}, {"buffer": 0, "byteLength": 360, "byteOffset": 28480, "target": 34963}, {"buffer": 0, "byteLength": 1596, "byteOffset": 28840, "target": 34962}, {"buffer": 0, "byteLength": 1596, "byteOffset": 30436, "target": 34962}, {"buffer": 0, "byteLength": 1064, "byteOffset": 32032, "target": 34962}, {"buffer": 0, "byteLength": 360, "byteOffset": 33096, "target": 34963}, {"buffer": 0, "byteLength": 1584, "byteOffset": 33456, "target": 34962}, {"buffer": 0, "byteLength": 1584, "byteOffset": 35040, "target": 34962}, {"buffer": 0, "byteLength": 1056, "byteOffset": 36624, "target": 34962}, {"buffer": 0, "byteLength": 360, "byteOffset": 37680, "target": 34963}, {"buffer": 0, "byteLength": 1596, "byteOffset": 38040, "target": 34962}, {"buffer": 0, "byteLength": 1596, "byteOffset": 39636, "target": 34962}, {"buffer": 0, "byteLength": 1064, "byteOffset": 41232, "target": 34962}], "buffers": [{"byteLength": 42296, "uri": "data:application/octet-stream;base64,"}], "asset": {"version": "2.0", "generator": "maya-glTFExport"}}