{"accessors": [{"count": 3054, "min": [0], "max": [1805], "bufferView": 0, "componentType": 5123, "byteOffset": 0, "type": "SCALAR"}, {"count": 1806, "min": [-0.46190112829208374, -0.855964183807373, -0.504970133304596], "max": [0.557012677192688, 2.6845507621765137, 0.3201301395893097], "bufferView": 1, "componentType": 5126, "byteOffset": 0, "type": "VEC3"}, {"componentType": 5126, "count": 1806, "bufferView": 2, "type": "VEC3", "byteOffset": 0}, {"componentType": 5126, "count": 1806, "bufferView": 3, "type": "VEC2", "byteOffset": 0}], "scenes": [{"nodes": [0, 2, 4, 6, 8, 10], "name": "defaultScene"}], "scene": 0, "materials": [{"alphaMode": "OPAQUE", "pbrMetallicRoughness": {"roughnessFactor": 1, "metallicFactor": 0, "baseColorFactor": [1.0, 0.155799999833107, 0.155799999833107, 1.0]}}], "meshes": [{"primitives": [{"indices": 0, "attributes": {"POSITION": 1, "TEXCOORD_0": 3, "NORMAL": 2}, "material": 0, "mode": 4}]}], "nodes": [{"translation": [0.0, 0.0, -0.050403487720190376], "scale": [0.7363710595915174, 1.0, 0.7363710595915174], "rotation": [0.0, 0.0, 0.0, 1.0], "children": [1]}, {"translation": [0.0, 0.0, 0.0], "scale": [1.0, 1.0, 1.0], "rotation": [0.0, 0.0, 0.0, 1.0]}, {"translation": [0.06362669463946741, 0.8490470001494996, -0.03901044064036549], "scale": [0.23690178259501646, 0.39640850323098875, 0.27331412352136075], "rotation": [0.11947428220958956, 0.764768426444941, -0.312601305847346, 0.5505774908093921], "children": [3]}, {"translation": [0.0, 0.0, 0.0], "scale": [1.0, 1.0, 1.0], "rotation": [0.0, 0.0, 0.0, 1.0]}, {"translation": [-0.05587369869860245, 1.3224770247577218, -0.03306597774224801], "scale": [0.1984433056327833, 0.39640850323098875, 0.22692210460989626], "rotation": [-0.13303484354639408, 0.6077031358362119, -0.15069755389611209, -0.7683025942603273], "children": [5]}, {"translation": [0.0, 0.0, 0.0], "scale": [1.0, 1.0, 1.0], "rotation": [0.0, 0.0, 0.0, 1.0]}, {"translation": [-0.01084838131068927, 0.7201775885377009, -0.16013122688467382], "scale": [0.39640850323098875, 0.39640850323098875, 0.39640850323098875], "rotation": [-0.10325430956638997, 0.813039524690402, -0.2863337855259161, -0.49630458602915617], "children": [7]}, {"translation": [0.0, 0.0, 0.0], "scale": [1.0, 1.0, 1.0], "rotation": [0.0, 0.0, 0.0, 1.0]}, {"translation": [0.01381826320236565, 1.7960821310077888, -0.056345429831428456], "scale": [0.1984433056327833, 0.39640850323098875, 0.21664573267011947], "rotation": [-0.20145717876062436, -0.040964970869264, -0.09875924198564645, -0.973644436336957], "children": [9]}, {"translation": [0.0, 0.0, 0.0], "scale": [1.0, 1.0, 1.0], "rotation": [0.0, 0.0, 0.0, 1.0]}, {"translation": [0.0, 0.0, 0.0], "scale": [1.0, 1.0, 1.0], "rotation": [0.0, 0.0, 0.0, 1.0], "mesh": 0}], "bufferViews": [{"buffer": 0, "byteLength": 6108, "byteOffset": 0, "target": 34963}, {"buffer": 0, "byteLength": 21672, "byteOffset": 6108, "target": 34962}, {"buffer": 0, "byteLength": 21672, "byteOffset": 27780, "target": 34962}, {"buffer": 0, "byteLength": 14448, "byteOffset": 49452, "target": 34962}], "buffers": [{"byteLength": 63900, "uri": "data:application/octet-stream;base64,"}], "asset": {"version": "2.0", "generator": "maya-glTFExport"}}