{"accessors": [{"count": 336, "min": [0], "max": [169], "bufferView": 0, "componentType": 5123, "byteOffset": 0, "type": "SCALAR"}, {"count": 170, "min": [-4.117124080657959, -1.7577680349349976, -4.004349231719971], "max": [3.667968273162842, 0.4870656728744507, 3.8122291564941406], "bufferView": 1, "componentType": 5126, "byteOffset": 0, "type": "VEC3"}, {"componentType": 5126, "count": 170, "bufferView": 2, "type": "VEC3", "byteOffset": 0}, {"componentType": 5126, "count": 170, "bufferView": 3, "type": "VEC2", "byteOffset": 0}], "scenes": [{"nodes": [0, 2, 4], "name": "defaultScene"}], "scene": 0, "materials": [{"alphaMode": "OPAQUE", "pbrMetallicRoughness": {"roughnessFactor": 1, "metallicFactor": 0, "baseColorFactor": [1.0, 0.972135066986084, 0.5879999995231628, 1.0]}}], "meshes": [{"primitives": [{"indices": 0, "attributes": {"POSITION": 1, "TEXCOORD_0": 3, "NORMAL": 2}, "material": 0, "mode": 4}]}], "nodes": [{"translation": [0.281411126400984, -0.6353511889327257, 0.42567210601920746], "scale": [6.773114320986299, 2.244833618896602, 6.773114320986299], "rotation": [0.0, 0.0, 0.0, 1.0], "children": [1]}, {"translation": [0.0, 0.0, 0.0], "scale": [1.0, 1.0, 1.0], "rotation": [0.0, 0.0, 0.0, 1.0]}, {"translation": [-0.7305668383744972, -0.646738238017097, -0.617792258675409], "scale": [6.773114320986299, 1.900722462208743, 6.773114320986299], "rotation": [0.0, 0.0, 0.0, 1.0], "children": [3]}, {"translation": [0.0, 0.0, 0.0], "scale": [1.0, 1.0, 1.0], "rotation": [0.0, 0.0, 0.0, 1.0]}, {"translation": [0.0, 0.0, 0.0], "scale": [1.0, 1.0, 1.0], "rotation": [0.0, 0.0, 0.0, 1.0], "mesh": 0}], "bufferViews": [{"buffer": 0, "byteLength": 672, "byteOffset": 0, "target": 34963}, {"buffer": 0, "byteLength": 2040, "byteOffset": 672, "target": 34962}, {"buffer": 0, "byteLength": 2040, "byteOffset": 2712, "target": 34962}, {"buffer": 0, "byteLength": 1360, "byteOffset": 4752, "target": 34962}], "buffers": [{"byteLength": 6112, "uri": "data:application/octet-stream;base64,"}], "asset": {"version": "2.0", "generator": "maya-glTFExport"}}