{"accessors": [{"count": 1176, "min": [0], "max": [648], "bufferView": 0, "componentType": 5123, "byteOffset": 0, "type": "SCALAR"}, {"count": 649, "min": [-0.3275916874408722, -0.6878347396850586, -1.0412418842315674], "max": [0.3275916874408722, 0.8896951675415039, 1.6168017387390137], "bufferView": 1, "componentType": 5126, "byteOffset": 0, "type": "VEC3"}, {"componentType": 5126, "count": 649, "bufferView": 2, "type": "VEC3", "byteOffset": 0}, {"componentType": 5126, "count": 649, "bufferView": 3, "type": "VEC2", "byteOffset": 0}], "scenes": [{"nodes": [0], "name": "defaultScene"}], "scene": 0, "materials": [{"alphaMode": "OPAQUE", "pbrMetallicRoughness": {"roughnessFactor": 1, "metallicFactor": 0, "baseColorFactor": [1.0, 0.07099997997283936, 0.07099997997283936, 1.0]}}], "meshes": [{"primitives": [{"indices": 0, "attributes": {"POSITION": 1, "TEXCOORD_0": 3, "NORMAL": 2}, "material": 0, "mode": 4}]}], "nodes": [{"translation": [0.0, 0.0, 0.0], "scale": [1.0, 1.0, 1.0], "rotation": [0.0, 0.0, 0.0, 1.0], "mesh": 0}], "bufferViews": [{"buffer": 0, "byteLength": 2352, "byteOffset": 0, "target": 34963}, {"buffer": 0, "byteLength": 7788, "byteOffset": 2352, "target": 34962}, {"buffer": 0, "byteLength": 7788, "byteOffset": 10140, "target": 34962}, {"buffer": 0, "byteLength": 5192, "byteOffset": 17928, "target": 34962}], "buffers": [{"byteLength": 23120, "uri": "data:application/octet-stream;base64,"}], "asset": {"version": "2.0", "generator": "maya-glTFExport"}}