{"accessors": [{"count": 702, "min": [0], "max": [364], "bufferView": 0, "componentType": 5123, "byteOffset": 0, "type": "SCALAR"}, {"count": 365, "min": [-0.23529453575611115, -0.5303018093109131, -0.7147382497787476], "max": [0.25786054134368896, 0.5303018093109131, 0.5303018093109131], "bufferView": 1, "componentType": 5126, "byteOffset": 0, "type": "VEC3"}, {"componentType": 5126, "count": 365, "bufferView": 2, "type": "VEC3", "byteOffset": 0}, {"componentType": 5126, "count": 365, "bufferView": 3, "type": "VEC2", "byteOffset": 0}], "scenes": [{"nodes": [0, 2, 4, 6, 8], "name": "defaultScene"}], "scene": 0, "materials": [{"alphaMode": "OPAQUE", "pbrMetallicRoughness": {"roughnessFactor": 1, "metallicFactor": 0, "baseColorFactor": [0.5, 0.5, 0.5, 1.0]}}], "meshes": [{"primitives": [{"indices": 0, "attributes": {"POSITION": 1, "TEXCOORD_0": 3, "NORMAL": 2}, "material": 0, "mode": 4}]}], "nodes": [{"translation": [0.0, 0.0, 0.0], "scale": [0.2403390675630663, 1.0, 1.0], "rotation": [0.3874503368785828, 0.0, 0.0, 0.9218905772664523], "children": [1]}, {"translation": [0.0, 0.0, 0.0], "scale": [1.0, 1.0, 1.0], "rotation": [0.0, 0.0, 0.0, 1.0]}, {"translation": [0.0, 0.0, -0.3861911944119816], "scale": [0.2403390675630663, 0.6195473017901268, 0.6195473017901268], "rotation": [0.3874503368785828, 0.0, 0.0, 0.9218905772664523], "children": [3]}, {"translation": [0.0, 0.0, 0.0], "scale": [1.0, 1.0, 1.0], "rotation": [0.0, 0.0, 0.0, 1.0]}, {"translation": [0.1517971631006231, -0.1468338836646137, 0.0797012208027098], "scale": [0.12289555265765977, 0.3168007965707869, 0.3168007965707869], "rotation": [0.3648944465356802, -0.3115720492883664, 0.12402430177412922, 0.8685579275782975], "children": [5]}, {"translation": [0.0, 0.0, 0.0], "scale": [1.0, 1.0, 1.0], "rotation": [0.0, 0.0, 0.0, 1.0]}, {"translation": [-0.12980935104214789, -0.15122083685873874, 0.0797012208027098], "scale": [0.12289555265765977, 0.3168007965707869, 0.3168007965707869], "rotation": [0.3318873224169086, 0.3001006999639362, -0.1439001333271597, 0.8826568567277524], "children": [7]}, {"translation": [0.0, 0.0, 0.0], "scale": [1.0, 1.0, 1.0], "rotation": [0.0, 0.0, 0.0, 1.0]}, {"translation": [0.0, 0.0, 0.0], "scale": [1.0, 1.0, 1.0], "rotation": [0.0, 0.0, 0.0, 1.0], "mesh": 0}], "bufferViews": [{"buffer": 0, "byteLength": 1404, "byteOffset": 0, "target": 34963}, {"buffer": 0, "byteLength": 4380, "byteOffset": 1404, "target": 34962}, {"buffer": 0, "byteLength": 4380, "byteOffset": 5784, "target": 34962}, {"buffer": 0, "byteLength": 2920, "byteOffset": 10164, "target": 34962}], "buffers": [{"byteLength": 13084, "uri": "data:application/octet-stream;base64,"}], "asset": {"version": "2.0", "generator": "maya-glTFExport"}}