{"accessors": [{"count": 4050, "min": [0], "max": [3609], "bufferView": 0, "componentType": 5123, "byteOffset": 0, "type": "SCALAR"}, {"count": 3610, "min": [-0.17859116196632385, -0.12842822074890137, -0.40811482071876526], "max": [0.12886571884155273, 5.0131025314331055, 0.5610690116882324], "bufferView": 1, "componentType": 5126, "byteOffset": 0, "type": "VEC3"}, {"componentType": 5126, "count": 3610, "bufferView": 2, "type": "VEC3", "byteOffset": 0}, {"componentType": 5126, "count": 3610, "bufferView": 3, "type": "VEC2", "byteOffset": 0}], "scenes": [{"nodes": [0, 3, 5, 7, 9, 11, 13, 15, 17, 19, 21, 23, 25, 27, 29, 31, 33, 35, 37, 39], "name": "defaultScene"}], "scene": 0, "materials": [{"alphaMode": "OPAQUE", "pbrMetallicRoughness": {"roughnessFactor": 1, "metallicFactor": 0, "baseColorFactor": [0.029600000008940697, 0.5042999982833862, 0.28519999980926514, 1.0]}}], "meshes": [{"primitives": [{"indices": 0, "attributes": {"POSITION": 1, "TEXCOORD_0": 3, "NORMAL": 2}, "material": 0, "mode": 4}]}], "nodes": [{"translation": [0.0, 0.0, 0.0], "scale": [0.5074779207549039, 0.866936505820872, 0.5074779207549039], "rotation": [0.0, 0.0, 0.0, 1.0], "children": [1]}, {"translation": [0.0, -0.08824054268163993, 0.0], "scale": [1.0, 1.0, 1.0], "rotation": [0.0, 0.0, 0.0, 1.0], "children": [2]}, {"translation": [0.0, 0.0, 0.0], "scale": [1.0, 1.0, 1.0], "rotation": [0.0, 0.0, 0.0, 1.0]}, {"translation": [-0.04233175234598163, 2.5017777003174064, -0.16925498139331013], "scale": [0.08525382994310131, 0.15691425052812008, 0.1737829289672998], "rotation": [0.39202894128207527, 0.0, 0.0, 0.9199528842268256], "children": [4]}, {"translation": [0.0, 0.0, 0.0], "scale": [1.0, 1.0, 1.0], "rotation": [0.0, 0.0, 0.0, 1.0]}, {"translation": [-0.10432331613268597, 3.366709229671219, -0.1878025885119757], "scale": [0.08525382994310131, 0.15691425052812008, 0.1737829289672998], "rotation": [0.30612658224100964, 0.053092585206931456, 0.009233453403083994, 0.9504643267265407], "children": [6]}, {"translation": [0.0, 0.0, 0.0], "scale": [1.0, 1.0, 1.0], "rotation": [0.0, 0.0, 0.0, 1.0]}, {"translation": [-0.04233175234598163, 4.494317652162137, -0.17677055298468453], "scale": [0.07927439087695515, 0.13306431361966753, 0.11904993100646144], "rotation": [0.1254289999960355, 0.0, 0.0, 0.9921025985048092], "children": [8]}, {"translation": [0.0, 0.0, 0.0], "scale": [1.0, 1.0, 1.0], "rotation": [0.0, 0.0, 0.0, 1.0]}, {"translation": [-0.04233175234598163, 4.120036445269871, 0.32116961004113437], "scale": [0.08525382994310131, 0.1475671232818456, 0.13072763316216388], "rotation": [-0.9704979007245824, 0.0, 0.0, -0.24110956988302762], "children": [10]}, {"translation": [0.0, 0.0, 0.0], "scale": [1.0, 1.0, 1.0], "rotation": [0.0, 0.0, 0.0, 1.0]}, {"translation": [-0.06340878327980953, 3.0133235440888617, 0.32068851816275207], "scale": [0.08525382994310131, 0.15691425052812008, 0.1737829289672998], "rotation": [-0.8992395503415247, 0.0, 0.0, -0.43745654767253445], "children": [12]}, {"translation": [0.0, 0.0, 0.0], "scale": [1.0, 1.0, 1.0], "rotation": [0.0, 0.0, 0.0, 1.0]}, {"translation": [0.06791345782189451, 2.089760570161753, 0.3563971826697511], "scale": [0.08525382994310131, 0.15691425052812008, 0.16350329649541923], "rotation": [-0.9662257554209792, 0.0225983475913477, 0.0909613372372043, -0.24004820219138925], "children": [14]}, {"translation": [0.0, 0.0, 0.0], "scale": [1.0, 1.0, 1.0], "rotation": [0.0, 0.0, 0.0, 1.0]}, {"translation": [0.04169072571292298, 1.6136714382906365, 0.2793939707624362], "scale": [0.07841546753771268, 0.12258744858279114, 0.10021682909392347], "rotation": [-0.9704979007245824, 0.0, 0.0, -0.24110956988302762], "children": [16]}, {"translation": [0.0, 0.0, 0.0], "scale": [1.0, 1.0, 1.0], "rotation": [0.0, 0.0, 0.0, 1.0]}, {"translation": [-0.07336241790625392, 2.4602111208376773, 0.2705956875098824], "scale": [0.07841546753771268, 0.12258744858279114, 0.10021682909392347], "rotation": [-0.9704979007245824, 0.0, 0.0, -0.24110956988302762], "children": [18]}, {"translation": [0.0, 0.0, 0.0], "scale": [1.0, 1.0, 1.0], "rotation": [0.0, 0.0, 0.0, 1.0]}, {"translation": [-0.01826928836293029, 3.346606960924602, 0.27248731979477986], "scale": [0.07841546753771268, 0.12258744858279114, 0.11103179197579176], "rotation": [-0.9651926854375031, 0.025176150331864572, 0.10133733413092944, -0.23979154727313573], "children": [20]}, {"translation": [0.0, 0.0, 0.0], "scale": [1.0, 1.0, 1.0], "rotation": [0.0, 0.0, 0.0, 1.0]}, {"translation": [-0.07399098551319927, 3.699641947553225, 0.29626706916694745], "scale": [0.07841546753771268, 0.12258744858279114, 0.11103179197579176], "rotation": [-0.9894479952819858, -0.020603316204859785, -0.05570854226939739, -0.13215417629435958], "children": [22]}, {"translation": [0.0, 0.0, 0.0], "scale": [1.0, 1.0, 1.0], "rotation": [0.0, 0.0, 0.0, 1.0]}, {"translation": [-0.04664209658270477, 4.549904685606685, 0.2852892945496447], "scale": [0.07841546753771268, 0.12258744858279114, 0.1368920195618508], "rotation": [-0.9593166865858435, -0.01219964914258594, -0.05813008585247851, -0.276013689003897], "children": [24]}, {"translation": [0.0, 0.0, 0.0], "scale": [1.0, 1.0, 1.0], "rotation": [0.0, 0.0, 0.0, 1.0]}, {"translation": [-0.04664209658270477, 4.896091367584053, 0.23111068638967586], "scale": [0.07841546753771268, 0.12258744858279114, 0.11103179197579176], "rotation": [-0.9313111977837376, -0.007037760513593519, -0.05897803190487134, -0.3593487366920903], "children": [26]}, {"translation": [0.0, 0.0, 0.0], "scale": [1.0, 1.0, 1.0], "rotation": [0.0, 0.0, 0.0, 1.0]}, {"translation": [-0.12500251631365392, 2.8966374093862157, -0.17568988125425733], "scale": [0.08525382994310131, 0.15691425052812008, 0.14800484585959875], "rotation": [0.22466197938256108, 0.0732115226758281, 0.0017796500181700703, 0.9716809665796737], "children": [28]}, {"translation": [0.0, 0.0, 0.0], "scale": [1.0, 1.0, 1.0], "rotation": [0.0, 0.0, 0.0, 1.0]}, {"translation": [-0.052398679407123505, 4.18600845414366, -0.1732049942159445], "scale": [0.08128325841668264, 0.15691425052812008, 0.14199238654346996], "rotation": [0.31123600199607654, 0.07307440638352398, -0.004819267412800518, 0.9475067582106196], "children": [30]}, {"translation": [0.0, 0.0, 0.0], "scale": [1.0, 1.0, 1.0], "rotation": [0.0, 0.0, 0.0, 1.0]}, {"translation": [-0.007179552293364089, 2.015356608201966, -0.2181530227919447], "scale": [0.08525382994310131, 0.15691425052812008, 0.1482300911049932], "rotation": [0.21418035282532263, 0.0, 0.0, 0.9767941320788226], "children": [32]}, {"translation": [0.0, 0.0, 0.0], "scale": [1.0, 1.0, 1.0], "rotation": [0.0, 0.0, 0.0, 1.0]}, {"translation": [-0.09108878248763566, 3.742213486566837, -0.15662546762429616], "scale": [0.08525382994310131, 0.15691425052812008, 0.136737306194605], "rotation": [0.2391897975256425, 0.05232062567630499, 0.012908578331565957, 0.9694762304945593], "children": [34]}, {"translation": [0.0, 0.0, 0.0], "scale": [1.0, 1.0, 1.0], "rotation": [0.0, 0.0, 0.0, 1.0]}, {"translation": [0.04169072571292298, 1.6266503146577713, -0.06282566936905401], "scale": [0.07841546753771268, 0.12258744858279114, 0.10021682909392347], "rotation": [-0.4058814784378603, 0.0, 0.0, -0.9139257220699595], "children": [36]}, {"translation": [0.0, 0.0, 0.0], "scale": [1.0, 1.0, 1.0], "rotation": [0.0, 0.0, 0.0, 1.0]}, {"translation": [-0.029531543256092835, 4.823553224032446, -0.06258329971744471], "scale": [0.07616928190844229, 0.09022188214182371, 0.06825773889634579], "rotation": [-0.331315432412734, 0.04028919095430771, -0.04364309123636918, -0.9416486318817356], "children": [38]}, {"translation": [0.0, 0.0, 0.0], "scale": [1.0, 1.0, 1.0], "rotation": [0.0, 0.0, 0.0, 1.0]}, {"translation": [0.0, 0.0, 0.0], "scale": [1.0, 1.0, 1.0], "rotation": [0.0, 0.0, 0.0, 1.0], "mesh": 0}], "bufferViews": [{"buffer": 0, "byteLength": 8100, "byteOffset": 0, "target": 34963}, {"buffer": 0, "byteLength": 43320, "byteOffset": 8100, "target": 34962}, {"buffer": 0, "byteLength": 43320, "byteOffset": 51420, "target": 34962}, {"buffer": 0, "byteLength": 28880, "byteOffset": 94740, "target": 34962}], "buffers": [{"byteLength": 123620, "uri": "data:application/octet-stream;base64,"}], "asset": {"version": "2.0", "generator": "maya-glTFExport"}}