{"accessors": [{"count": 228, "min": [0], "max": [169], "bufferView": 0, "componentType": 5123, "byteOffset": 0, "type": "SCALAR"}, {"count": 170, "min": [-0.22460798919200897, -1.9985671043395996, -0.06730877608060837], "max": [0.17342063784599304, 5.297543525695801, 0.24279414117336273], "bufferView": 1, "componentType": 5126, "byteOffset": 0, "type": "VEC3"}, {"componentType": 5126, "count": 170, "bufferView": 2, "type": "VEC3", "byteOffset": 0}, {"componentType": 5126, "count": 170, "bufferView": 3, "type": "VEC2", "byteOffset": 0}, {"count": 228, "min": [0], "max": [169], "bufferView": 4, "componentType": 5123, "byteOffset": 0, "type": "SCALAR"}, {"count": 170, "min": [-0.22460797429084778, -2.1592681407928467, -0.06730881333351135], "max": [0.17342062294483185, 5.297544002532959, 0.24279414117336273], "bufferView": 5, "componentType": 5126, "byteOffset": 0, "type": "VEC3"}, {"componentType": 5126, "count": 170, "bufferView": 6, "type": "VEC3", "byteOffset": 0}, {"componentType": 5126, "count": 170, "bufferView": 7, "type": "VEC2", "byteOffset": 0}, {"count": 228, "min": [0], "max": [169], "bufferView": 8, "componentType": 5123, "byteOffset": 0, "type": "SCALAR"}, {"count": 170, "min": [-0.22460795938968658, -2.469175100326538, -0.06730877608060837], "max": [0.17342069745063782, 5.297544479370117, 0.24279417097568512], "bufferView": 9, "componentType": 5126, "byteOffset": 0, "type": "VEC3"}, {"componentType": 5126, "count": 170, "bufferView": 10, "type": "VEC3", "byteOffset": 0}, {"componentType": 5126, "count": 170, "bufferView": 11, "type": "VEC2", "byteOffset": 0}, {"count": 228, "min": [0], "max": [169], "bufferView": 12, "componentType": 5123, "byteOffset": 0, "type": "SCALAR"}, {"count": 170, "min": [-0.22460800409317017, -2.228057861328125, -0.06730878353118896], "max": [0.17342063784599304, 5.297544002532959, 0.2427942007780075], "bufferView": 13, "componentType": 5126, "byteOffset": 0, "type": "VEC3"}, {"componentType": 5126, "count": 170, "bufferView": 14, "type": "VEC3", "byteOffset": 0}, {"componentType": 5126, "count": 170, "bufferView": 15, "type": "VEC2", "byteOffset": 0}, {"count": 228, "min": [0], "max": [169], "bufferView": 16, "componentType": 5123, "byteOffset": 0, "type": "SCALAR"}, {"count": 170, "min": [-0.22460797429084778, -2.959179162979126, -0.06730885803699493], "max": [0.17342060804367065, 5.297543525695801, 0.24279417097568512], "bufferView": 17, "componentType": 5126, "byteOffset": 0, "type": "VEC3"}, {"componentType": 5126, "count": 170, "bufferView": 18, "type": "VEC3", "byteOffset": 0}, {"componentType": 5126, "count": 170, "bufferView": 19, "type": "VEC2", "byteOffset": 0}, {"count": 228, "min": [0], "max": [169], "bufferView": 20, "componentType": 5123, "byteOffset": 0, "type": "SCALAR"}, {"count": 170, "min": [-0.22460797429084778, -2.553255319595337, -0.06730880588293076], "max": [0.17342066764831543, 5.297544002532959, 0.24279412627220154], "bufferView": 21, "componentType": 5126, "byteOffset": 0, "type": "VEC3"}, {"componentType": 5126, "count": 170, "bufferView": 22, "type": "VEC3", "byteOffset": 0}, {"componentType": 5126, "count": 170, "bufferView": 23, "type": "VEC2", "byteOffset": 0}], "scenes": [{"nodes": [0, 1, 2, 3, 4, 5], "name": "defaultScene"}], "scene": 0, "materials": [{"alphaMode": "OPAQUE", "pbrMetallicRoughness": {"roughnessFactor": 1, "metallicFactor": 0, "baseColorFactor": [0.42309999465942383, 1.0, 0.0, 1.0]}}], "meshes": [{"primitives": [{"indices": 0, "attributes": {"POSITION": 1, "TEXCOORD_0": 3, "NORMAL": 2}, "material": 0, "mode": 4}]}, {"primitives": [{"indices": 4, "attributes": {"POSITION": 5, "TEXCOORD_0": 7, "NORMAL": 6}, "material": 0, "mode": 4}]}, {"primitives": [{"indices": 8, "attributes": {"POSITION": 9, "TEXCOORD_0": 11, "NORMAL": 10}, "material": 0, "mode": 4}]}, {"primitives": [{"indices": 12, "attributes": {"POSITION": 13, "TEXCOORD_0": 15, "NORMAL": 14}, "material": 0, "mode": 4}]}, {"primitives": [{"indices": 16, "attributes": {"POSITION": 17, "TEXCOORD_0": 19, "NORMAL": 18}, "material": 0, "mode": 4}]}, {"primitives": [{"indices": 20, "attributes": {"POSITION": 21, "TEXCOORD_0": 23, "NORMAL": 22}, "material": 0, "mode": 4}]}], "nodes": [{"translation": [0.0, 0.4334699557573958, 0.0], "scale": [1.0, 1.0, 1.0], "rotation": [0.0, 0.0, 0.0, 1.0], "mesh": 0}, {"translation": [0.0, 0.33854990980442434, -0.3371731604264495], "scale": [1.0, 0.8805543561290363, 1.0], "rotation": [-0.0292327810705715, 0.4250102404738444, -0.013734318698166027, 0.9046121315199913], "mesh": 1}, {"translation": [0.37629918856414535, 0.3218785928502518, -0.14807258730345557], "scale": [1.0, 0.8250408081724748, 1.0], "rotation": [-0.034861800066595075, 0.20449589226769135, -0.022151314484593274, 0.9779956054136247], "mesh": 2}, {"translation": [0.22062979830767127, 0.3989885866079075, 0.31533434057557314], "scale": [1.0, 0.9350402949629696, 1.0], "rotation": [0.009846238016887533, 0.764589807760647, -0.019073308825651145, 0.6441596745806842], "mesh": 3}, {"translation": [-0.0642182498913072, 0.20810339754209706, 0.4040811396740774], "scale": [1.0, 0.5405943348605092, 1.0], "rotation": [-0.007185191708958316, 0.8748604385244485, 0.08525763063800912, -0.4767585579126065], "mesh": 4}, {"translation": [-0.3385761610797061, 0.27655618984733055, -0.0009746360598156811], "scale": [1.0, 0.6261038372153971, 1.0], "rotation": [-0.06380393646737233, 0.1963400997901172, 0.017671896566896945, -0.978298178970708], "mesh": 5}], "bufferViews": [{"buffer": 0, "byteLength": 456, "byteOffset": 0, "target": 34963}, {"buffer": 0, "byteLength": 2040, "byteOffset": 456, "target": 34962}, {"buffer": 0, "byteLength": 2040, "byteOffset": 2496, "target": 34962}, {"buffer": 0, "byteLength": 1360, "byteOffset": 4536, "target": 34962}, {"buffer": 0, "byteLength": 456, "byteOffset": 5896, "target": 34963}, {"buffer": 0, "byteLength": 2040, "byteOffset": 6352, "target": 34962}, {"buffer": 0, "byteLength": 2040, "byteOffset": 8392, "target": 34962}, {"buffer": 0, "byteLength": 1360, "byteOffset": 10432, "target": 34962}, {"buffer": 0, "byteLength": 456, "byteOffset": 11792, "target": 34963}, {"buffer": 0, "byteLength": 2040, "byteOffset": 12248, "target": 34962}, {"buffer": 0, "byteLength": 2040, "byteOffset": 14288, "target": 34962}, {"buffer": 0, "byteLength": 1360, "byteOffset": 16328, "target": 34962}, {"buffer": 0, "byteLength": 456, "byteOffset": 17688, "target": 34963}, {"buffer": 0, "byteLength": 2040, "byteOffset": 18144, "target": 34962}, {"buffer": 0, "byteLength": 2040, "byteOffset": 20184, "target": 34962}, {"buffer": 0, "byteLength": 1360, "byteOffset": 22224, "target": 34962}, {"buffer": 0, "byteLength": 456, "byteOffset": 23584, "target": 34963}, {"buffer": 0, "byteLength": 2040, "byteOffset": 24040, "target": 34962}, {"buffer": 0, "byteLength": 2040, "byteOffset": 26080, "target": 34962}, {"buffer": 0, "byteLength": 1360, "byteOffset": 28120, "target": 34962}, {"buffer": 0, "byteLength": 456, "byteOffset": 29480, "target": 34963}, {"buffer": 0, "byteLength": 2040, "byteOffset": 29936, "target": 34962}, {"buffer": 0, "byteLength": 2040, "byteOffset": 31976, "target": 34962}, {"buffer": 0, "byteLength": 1360, "byteOffset": 34016, "target": 34962}], "buffers": [{"byteLength": 35376, "uri": "data:application/octet-stream;base64,"}], "asset": {"version": "2.0", "generator": "maya-glTFExport"}}