{"accessors": [{"count": 1428, "min": [0], "max": [1073], "bufferView": 0, "componentType": 5123, "byteOffset": 0, "type": "SCALAR"}, {"count": 1074, "min": [-0.6094897985458374, -1.714896321296692, -0.6691042184829712], "max": [0.6609564423561096, 5.731013298034668, 0.8587908148765564], "bufferView": 1, "componentType": 5126, "byteOffset": 0, "type": "VEC3"}, {"componentType": 5126, "count": 1074, "bufferView": 2, "type": "VEC3", "byteOffset": 0}, {"componentType": 5126, "count": 1074, "bufferView": 3, "type": "VEC2", "byteOffset": 0}], "scenes": [{"nodes": [0, 2, 4, 6, 8, 10, 12], "name": "defaultScene"}], "scene": 0, "materials": [{"alphaMode": "OPAQUE", "pbrMetallicRoughness": {"roughnessFactor": 1, "metallicFactor": 0, "baseColorFactor": [0.42309999465942383, 1.0, 0.0, 1.0]}}], "meshes": [{"primitives": [{"indices": 0, "attributes": {"POSITION": 1, "TEXCOORD_0": 3, "NORMAL": 2}, "material": 0, "mode": 4}]}], "nodes": [{"translation": [0.0, 0.4334699557573958, 0.0], "scale": [1.0, 1.0, 1.0], "rotation": [0.0, 0.0, 0.0, 1.0], "children": [1]}, {"translation": [0.0, 0.0, 0.0], "scale": [1.0, 1.0, 1.0], "rotation": [0.0, 0.0, 0.0, 1.0]}, {"translation": [0.0, 0.33854990980442434, -0.3371731604264495], "scale": [1.0, 0.8805543561290363, 1.0], "rotation": [-0.0292327810705715, 0.4250102404738444, -0.013734318698166027, 0.9046121315199913], "children": [3]}, {"translation": [0.0, 0.0, 0.0], "scale": [1.0, 1.0, 1.0], "rotation": [0.0, 0.0, 0.0, 1.0]}, {"translation": [0.37629918856414535, 0.3218785928502518, -0.14807258730345557], "scale": [1.0, 0.8250408081724748, 1.0], "rotation": [-0.034861800066595075, 0.20449589226769135, -0.022151314484593274, 0.9779956054136247], "children": [5]}, {"translation": [0.0, 0.0, 0.0], "scale": [1.0, 1.0, 1.0], "rotation": [0.0, 0.0, 0.0, 1.0]}, {"translation": [0.22062979830767127, 0.3989885866079075, 0.31533434057557314], "scale": [1.0, 0.9350402949629696, 1.0], "rotation": [0.009846238016887533, 0.764589807760647, -0.019073308825651145, 0.6441596745806842], "children": [7]}, {"translation": [0.0, 0.0, 0.0], "scale": [1.0, 1.0, 1.0], "rotation": [0.0, 0.0, 0.0, 1.0]}, {"translation": [-0.0642182498913072, 0.20810339754209706, 0.4040811396740774], "scale": [1.0, 0.5405943348605092, 1.0], "rotation": [-0.007185191708958316, 0.8748604385244485, 0.08525763063800912, -0.4767585579126065], "children": [9]}, {"translation": [0.0, 0.0, 0.0], "scale": [1.0, 1.0, 1.0], "rotation": [0.0, 0.0, 0.0, 1.0]}, {"translation": [-0.3385761610797061, 0.27655618984733055, -0.0009746360598156811], "scale": [1.0, 0.6261038372153971, 1.0], "rotation": [-0.06380393646737233, 0.1963400997901172, 0.017671896566896945, -0.978298178970708], "children": [11]}, {"translation": [0.0, 0.0, 0.0], "scale": [1.0, 1.0, 1.0], "rotation": [0.0, 0.0, 0.0, 1.0]}, {"translation": [0.0, 0.0, 0.0], "scale": [1.0, 1.0, 1.0], "rotation": [0.0, 0.0, 0.0, 1.0], "mesh": 0}], "bufferViews": [{"buffer": 0, "byteLength": 2856, "byteOffset": 0, "target": 34963}, {"buffer": 0, "byteLength": 12888, "byteOffset": 2856, "target": 34962}, {"buffer": 0, "byteLength": 12888, "byteOffset": 15744, "target": 34962}, {"buffer": 0, "byteLength": 8592, "byteOffset": 28632, "target": 34962}], "buffers": [{"byteLength": 37224, "uri": "data:application/octet-stream;base64,"}], "asset": {"version": "2.0", "generator": "maya-glTFExport"}}