{"accessors": [{"count": 204, "min": [0], "max": [150], "bufferView": 0, "componentType": 5123, "byteOffset": 0, "type": "SCALAR"}, {"count": 151, "min": [-0.22460798919200897, -0.5039924383163452, -0.06730877608060837], "max": [0.17342063784599304, 5.297543525695801, 0.24279414117336273], "bufferView": 1, "componentType": 5126, "byteOffset": 0, "type": "VEC3"}, {"componentType": 5126, "count": 151, "bufferView": 2, "type": "VEC3", "byteOffset": 0}, {"componentType": 5126, "count": 151, "bufferView": 3, "type": "VEC2", "byteOffset": 0}, {"count": 204, "min": [0], "max": [150], "bufferView": 4, "componentType": 5123, "byteOffset": 0, "type": "SCALAR"}, {"count": 151, "min": [-0.22460798919200897, -0.5039924383163452, -0.06730877608060837], "max": [0.17342063784599304, 5.297543525695801, 0.24279414117336273], "bufferView": 5, "componentType": 5126, "byteOffset": 0, "type": "VEC3"}, {"componentType": 5126, "count": 151, "bufferView": 6, "type": "VEC3", "byteOffset": 0}, {"componentType": 5126, "count": 151, "bufferView": 7, "type": "VEC2", "byteOffset": 0}, {"count": 204, "min": [0], "max": [150], "bufferView": 8, "componentType": 5123, "byteOffset": 0, "type": "SCALAR"}, {"count": 151, "min": [-0.22460798919200897, -0.5039924383163452, -0.06730877608060837], "max": [0.17342063784599304, 5.297543525695801, 0.24279414117336273], "bufferView": 9, "componentType": 5126, "byteOffset": 0, "type": "VEC3"}, {"componentType": 5126, "count": 151, "bufferView": 10, "type": "VEC3", "byteOffset": 0}, {"componentType": 5126, "count": 151, "bufferView": 11, "type": "VEC2", "byteOffset": 0}, {"count": 204, "min": [0], "max": [150], "bufferView": 12, "componentType": 5123, "byteOffset": 0, "type": "SCALAR"}, {"count": 151, "min": [-0.22460798919200897, -0.5039924383163452, -0.06730877608060837], "max": [0.17342063784599304, 5.297543525695801, 0.24279414117336273], "bufferView": 13, "componentType": 5126, "byteOffset": 0, "type": "VEC3"}, {"componentType": 5126, "count": 151, "bufferView": 14, "type": "VEC3", "byteOffset": 0}, {"componentType": 5126, "count": 151, "bufferView": 15, "type": "VEC2", "byteOffset": 0}, {"count": 204, "min": [0], "max": [150], "bufferView": 16, "componentType": 5123, "byteOffset": 0, "type": "SCALAR"}, {"count": 151, "min": [-0.22460798919200897, -0.5039924383163452, -0.06730877608060837], "max": [0.17342063784599304, 5.297543525695801, 0.24279414117336273], "bufferView": 17, "componentType": 5126, "byteOffset": 0, "type": "VEC3"}, {"componentType": 5126, "count": 151, "bufferView": 18, "type": "VEC3", "byteOffset": 0}, {"componentType": 5126, "count": 151, "bufferView": 19, "type": "VEC2", "byteOffset": 0}, {"count": 204, "min": [0], "max": [150], "bufferView": 20, "componentType": 5123, "byteOffset": 0, "type": "SCALAR"}, {"count": 151, "min": [-0.22460798919200897, -0.5039924383163452, -0.06730877608060837], "max": [0.17342063784599304, 5.297543525695801, 0.24279414117336273], "bufferView": 21, "componentType": 5126, "byteOffset": 0, "type": "VEC3"}, {"componentType": 5126, "count": 151, "bufferView": 22, "type": "VEC3", "byteOffset": 0}, {"componentType": 5126, "count": 151, "bufferView": 23, "type": "VEC2", "byteOffset": 0}], "scenes": [{"nodes": [0, 1, 2, 3, 4, 5], "name": "defaultScene"}], "scene": 0, "materials": [{"alphaMode": "OPAQUE", "pbrMetallicRoughness": {"roughnessFactor": 1, "metallicFactor": 0, "baseColorFactor": [0.42309999465942383, 1.0, 0.0, 1.0]}}], "meshes": [{"primitives": [{"indices": 0, "attributes": {"POSITION": 1, "TEXCOORD_0": 3, "NORMAL": 2}, "material": 0, "mode": 4}]}, {"primitives": [{"indices": 4, "attributes": {"POSITION": 5, "TEXCOORD_0": 7, "NORMAL": 6}, "material": 0, "mode": 4}]}, {"primitives": [{"indices": 8, "attributes": {"POSITION": 9, "TEXCOORD_0": 11, "NORMAL": 10}, "material": 0, "mode": 4}]}, {"primitives": [{"indices": 12, "attributes": {"POSITION": 13, "TEXCOORD_0": 15, "NORMAL": 14}, "material": 0, "mode": 4}]}, {"primitives": [{"indices": 16, "attributes": {"POSITION": 17, "TEXCOORD_0": 19, "NORMAL": 18}, "material": 0, "mode": 4}]}, {"primitives": [{"indices": 20, "attributes": {"POSITION": 21, "TEXCOORD_0": 23, "NORMAL": 22}, "material": 0, "mode": 4}]}], "nodes": [{"translation": [0.0, 0.4334699557573958, 0.0], "scale": [1.0, 1.0, 1.0], "rotation": [0.0, 0.0, 0.0, 1.0], "mesh": 0}, {"translation": [0.0, 0.33854990980442434, -0.3371731604264495], "scale": [1.0, 0.8805543561290363, 1.0], "rotation": [-0.0292327810705715, 0.4250102404738444, -0.013734318698166027, 0.9046121315199913], "mesh": 1}, {"translation": [0.37629918856414535, 0.3218785928502518, -0.14807258730345557], "scale": [1.0, 0.8250408081724748, 1.0], "rotation": [-0.034861800066595075, 0.20449589226769135, -0.022151314484593274, 0.9779956054136247], "mesh": 2}, {"translation": [0.22062979830767127, 0.3989885866079075, 0.31533434057557314], "scale": [1.0, 0.9350402949629696, 1.0], "rotation": [0.009846238016887533, 0.764589807760647, -0.019073308825651145, 0.6441596745806842], "mesh": 3}, {"translation": [-0.0642182498913072, 0.20810339754209706, 0.4040811396740774], "scale": [1.0, 0.5405943348605092, 1.0], "rotation": [-0.007185191708958316, 0.8748604385244485, 0.08525763063800912, -0.4767585579126065], "mesh": 4}, {"translation": [-0.3385761610797061, 0.27655618984733055, -0.0009746360598156811], "scale": [1.0, 0.6261038372153971, 1.0], "rotation": [-0.06380393646737233, 0.1963400997901172, 0.017671896566896945, -0.978298178970708], "mesh": 5}], "bufferViews": [{"buffer": 0, "byteLength": 408, "byteOffset": 0, "target": 34963}, {"buffer": 0, "byteLength": 1812, "byteOffset": 408, "target": 34962}, {"buffer": 0, "byteLength": 1812, "byteOffset": 2220, "target": 34962}, {"buffer": 0, "byteLength": 1208, "byteOffset": 4032, "target": 34962}, {"buffer": 0, "byteLength": 408, "byteOffset": 5240, "target": 34963}, {"buffer": 0, "byteLength": 1812, "byteOffset": 5648, "target": 34962}, {"buffer": 0, "byteLength": 1812, "byteOffset": 7460, "target": 34962}, {"buffer": 0, "byteLength": 1208, "byteOffset": 9272, "target": 34962}, {"buffer": 0, "byteLength": 408, "byteOffset": 10480, "target": 34963}, {"buffer": 0, "byteLength": 1812, "byteOffset": 10888, "target": 34962}, {"buffer": 0, "byteLength": 1812, "byteOffset": 12700, "target": 34962}, {"buffer": 0, "byteLength": 1208, "byteOffset": 14512, "target": 34962}, {"buffer": 0, "byteLength": 408, "byteOffset": 15720, "target": 34963}, {"buffer": 0, "byteLength": 1812, "byteOffset": 16128, "target": 34962}, {"buffer": 0, "byteLength": 1812, "byteOffset": 17940, "target": 34962}, {"buffer": 0, "byteLength": 1208, "byteOffset": 19752, "target": 34962}, {"buffer": 0, "byteLength": 408, "byteOffset": 20960, "target": 34963}, {"buffer": 0, "byteLength": 1812, "byteOffset": 21368, "target": 34962}, {"buffer": 0, "byteLength": 1812, "byteOffset": 23180, "target": 34962}, {"buffer": 0, "byteLength": 1208, "byteOffset": 24992, "target": 34962}, {"buffer": 0, "byteLength": 408, "byteOffset": 26200, "target": 34963}, {"buffer": 0, "byteLength": 1812, "byteOffset": 26608, "target": 34962}, {"buffer": 0, "byteLength": 1812, "byteOffset": 28420, "target": 34962}, {"buffer": 0, "byteLength": 1208, "byteOffset": 30232, "target": 34962}], "buffers": [{"byteLength": 31440, "uri": "data:application/octet-stream;base64,"}], "asset": {"version": "2.0", "generator": "maya-glTFExport"}}